<?xml version="1.0" encoding="utf-8" standalone="no"?>
<!DOCTYPE svg PUBLIC "-//W3C//DTD SVG 1.1//EN"
  "http://www.w3.org/Graphics/SVG/1.1/DTD/svg11.dtd">
<svg xmlns:xlink="http://www.w3.org/1999/xlink" width="532.8pt" height="108pt" viewBox="0 0 532.8 108" xmlns="http://www.w3.org/2000/svg" version="1.1">
 <metadata>
  <rdf:RDF xmlns:dc="http://purl.org/dc/elements/1.1/" xmlns:cc="http://creativecommons.org/ns#" xmlns:rdf="http://www.w3.org/1999/02/22-rdf-syntax-ns#">
   <cc:Work>
    <dc:type rdf:resource="http://purl.org/dc/dcmitype/StillImage"/>
    <dc:date>2026-04-11T14:26:32.566916</dc:date>
    <dc:format>image/svg+xml</dc:format>
    <dc:creator>
     <cc:Agent>
      <dc:title>Matplotlib v3.8.4, https://matplotlib.org/</dc:title>
     </cc:Agent>
    </dc:creator>
   </cc:Work>
  </rdf:RDF>
 </metadata>
 <defs>
  <style type="text/css">*{stroke-linejoin: round; stroke-linecap: butt}</style>
 </defs>
 <g id="figure_1">
  <g id="patch_1">
   <path d="M 0 108 
L 532.8 108 
L 532.8 0 
L 0 0 
z
" style="fill: #ffffff"/>
  </g>
  <g id="axes_1">
   <g id="patch_2">
    <path d="M 66.6 96.12 
L 246.130435 96.12 
L 246.130435 12.96 
L 66.6 12.96 
z
" style="fill: #ffffff"/>
   </g>
   <g id="matplotlib.axis_1">
    <g id="xtick_1">
     <g id="line2d_1">
      <defs>
       <path id="m177ce89ba7" d="M 0 0 
L 0 3.5 
" style="stroke: #000000; stroke-width: 0.8"/>
      </defs>
      <g>
       <use xlink:href="#m177ce89ba7" x="74.751407" y="96.12" style="stroke: #000000; stroke-width: 0.8"/>
      </g>
     </g>
     <g id="text_1">
      <!-- 0 -->
      <g transform="translate(72.206407 109.19875) scale(0.08 -0.08)">
       <defs>
        <path id="DejaVuSans-30" d="M 2034 4250 
Q 1547 4250 1301 3770 
Q 1056 3291 1056 2328 
Q 1056 1369 1301 889 
Q 1547 409 2034 409 
Q 2525 409 2770 889 
Q 3016 1369 3016 2328 
Q 3016 3291 2770 3770 
Q 2525 4250 2034 4250 
z
M 2034 4750 
Q 2819 4750 3233 4129 
Q 3647 3509 3647 2328 
Q 3647 1150 3233 529 
Q 2819 -91 2034 -91 
Q 1250 -91 836 529 
Q 422 1150 422 2328 
Q 422 3509 836 4129 
Q 1250 4750 2034 4750 
z
" transform="scale(0.015625)"/>
       </defs>
       <use xlink:href="#DejaVuSans-30"/>
      </g>
     </g>
    </g>
    <g id="xtick_2">
     <g id="line2d_2">
      <g>
       <use xlink:href="#m177ce89ba7" x="120.089894" y="96.12" style="stroke: #000000; stroke-width: 0.8"/>
      </g>
     </g>
     <g id="text_2">
      <!-- 5000 -->
      <g transform="translate(109.909894 109.19875) scale(0.08 -0.08)">
       <defs>
        <path id="DejaVuSans-35" d="M 691 4666 
L 3169 4666 
L 3169 4134 
L 1269 4134 
L 1269 2991 
Q 1406 3038 1543 3061 
Q 1681 3084 1819 3084 
Q 2600 3084 3056 2656 
Q 3513 2228 3513 1497 
Q 3513 744 3044 326 
Q 2575 -91 1722 -91 
Q 1428 -91 1123 -41 
Q 819 9 494 109 
L 494 744 
Q 775 591 1075 516 
Q 1375 441 1709 441 
Q 2250 441 2565 725 
Q 2881 1009 2881 1497 
Q 2881 1984 2565 2268 
Q 2250 2553 1709 2553 
Q 1456 2553 1204 2497 
Q 953 2441 691 2322 
L 691 4666 
z
" transform="scale(0.015625)"/>
       </defs>
       <use xlink:href="#DejaVuSans-35"/>
       <use xlink:href="#DejaVuSans-30" x="63.623047"/>
       <use xlink:href="#DejaVuSans-30" x="127.246094"/>
       <use xlink:href="#DejaVuSans-30" x="190.869141"/>
      </g>
     </g>
    </g>
    <g id="xtick_3">
     <g id="line2d_3">
      <g>
       <use xlink:href="#m177ce89ba7" x="165.428381" y="96.12" style="stroke: #000000; stroke-width: 0.8"/>
      </g>
     </g>
     <g id="text_3">
      <!-- 10000 -->
      <g transform="translate(152.703381 109.19875) scale(0.08 -0.08)">
       <defs>
        <path id="DejaVuSans-31" d="M 794 531 
L 1825 531 
L 1825 4091 
L 703 3866 
L 703 4441 
L 1819 4666 
L 2450 4666 
L 2450 531 
L 3481 531 
L 3481 0 
L 794 0 
L 794 531 
z
" transform="scale(0.015625)"/>
       </defs>
       <use xlink:href="#DejaVuSans-31"/>
       <use xlink:href="#DejaVuSans-30" x="63.623047"/>
       <use xlink:href="#DejaVuSans-30" x="127.246094"/>
       <use xlink:href="#DejaVuSans-30" x="190.869141"/>
       <use xlink:href="#DejaVuSans-30" x="254.492188"/>
      </g>
     </g>
    </g>
    <g id="xtick_4">
     <g id="line2d_4">
      <g>
       <use xlink:href="#m177ce89ba7" x="210.766868" y="96.12" style="stroke: #000000; stroke-width: 0.8"/>
      </g>
     </g>
     <g id="text_4">
      <!-- 15000 -->
      <g transform="translate(198.041868 109.19875) scale(0.08 -0.08)">
       <use xlink:href="#DejaVuSans-31"/>
       <use xlink:href="#DejaVuSans-35" x="63.623047"/>
       <use xlink:href="#DejaVuSans-30" x="127.246094"/>
       <use xlink:href="#DejaVuSans-30" x="190.869141"/>
       <use xlink:href="#DejaVuSans-30" x="254.492188"/>
      </g>
     </g>
    </g>
    <g id="text_5">
     <!-- Iteration -->
     <g transform="translate(139.398342 120.94125) scale(0.08 -0.08)">
      <defs>
       <path id="DejaVuSans-49" d="M 628 4666 
L 1259 4666 
L 1259 0 
L 628 0 
L 628 4666 
z
" transform="scale(0.015625)"/>
       <path id="DejaVuSans-74" d="M 1172 4494 
L 1172 3500 
L 2356 3500 
L 2356 3053 
L 1172 3053 
L 1172 1153 
Q 1172 725 1289 603 
Q 1406 481 1766 481 
L 2356 481 
L 2356 0 
L 1766 0 
Q 1100 0 847 248 
Q 594 497 594 1153 
L 594 3053 
L 172 3053 
L 172 3500 
L 594 3500 
L 594 4494 
L 1172 4494 
z
" transform="scale(0.015625)"/>
       <path id="DejaVuSans-65" d="M 3597 1894 
L 3597 1613 
L 953 1613 
Q 991 1019 1311 708 
Q 1631 397 2203 397 
Q 2534 397 2845 478 
Q 3156 559 3463 722 
L 3463 178 
Q 3153 47 2828 -22 
Q 2503 -91 2169 -91 
Q 1331 -91 842 396 
Q 353 884 353 1716 
Q 353 2575 817 3079 
Q 1281 3584 2069 3584 
Q 2775 3584 3186 3129 
Q 3597 2675 3597 1894 
z
M 3022 2063 
Q 3016 2534 2758 2815 
Q 2500 3097 2075 3097 
Q 1594 3097 1305 2825 
Q 1016 2553 972 2059 
L 3022 2063 
z
" transform="scale(0.015625)"/>
       <path id="DejaVuSans-72" d="M 2631 2963 
Q 2534 3019 2420 3045 
Q 2306 3072 2169 3072 
Q 1681 3072 1420 2755 
Q 1159 2438 1159 1844 
L 1159 0 
L 581 0 
L 581 3500 
L 1159 3500 
L 1159 2956 
Q 1341 3275 1631 3429 
Q 1922 3584 2338 3584 
Q 2397 3584 2469 3576 
Q 2541 3569 2628 3553 
L 2631 2963 
z
" transform="scale(0.015625)"/>
       <path id="DejaVuSans-61" d="M 2194 1759 
Q 1497 1759 1228 1600 
Q 959 1441 959 1056 
Q 959 750 1161 570 
Q 1363 391 1709 391 
Q 2188 391 2477 730 
Q 2766 1069 2766 1631 
L 2766 1759 
L 2194 1759 
z
M 3341 1997 
L 3341 0 
L 2766 0 
L 2766 531 
Q 2569 213 2275 61 
Q 1981 -91 1556 -91 
Q 1019 -91 701 211 
Q 384 513 384 1019 
Q 384 1609 779 1909 
Q 1175 2209 1959 2209 
L 2766 2209 
L 2766 2266 
Q 2766 2663 2505 2880 
Q 2244 3097 1772 3097 
Q 1472 3097 1187 3025 
Q 903 2953 641 2809 
L 641 3341 
Q 956 3463 1253 3523 
Q 1550 3584 1831 3584 
Q 2591 3584 2966 3190 
Q 3341 2797 3341 1997 
z
" transform="scale(0.015625)"/>
       <path id="DejaVuSans-69" d="M 603 3500 
L 1178 3500 
L 1178 0 
L 603 0 
L 603 3500 
z
M 603 4863 
L 1178 4863 
L 1178 4134 
L 603 4134 
L 603 4863 
z
" transform="scale(0.015625)"/>
       <path id="DejaVuSans-6f" d="M 1959 3097 
Q 1497 3097 1228 2736 
Q 959 2375 959 1747 
Q 959 1119 1226 758 
Q 1494 397 1959 397 
Q 2419 397 2687 759 
Q 2956 1122 2956 1747 
Q 2956 2369 2687 2733 
Q 2419 3097 1959 3097 
z
M 1959 3584 
Q 2709 3584 3137 3096 
Q 3566 2609 3566 1747 
Q 3566 888 3137 398 
Q 2709 -91 1959 -91 
Q 1206 -91 779 398 
Q 353 888 353 1747 
Q 353 2609 779 3096 
Q 1206 3584 1959 3584 
z
" transform="scale(0.015625)"/>
       <path id="DejaVuSans-6e" d="M 3513 2113 
L 3513 0 
L 2938 0 
L 2938 2094 
Q 2938 2591 2744 2837 
Q 2550 3084 2163 3084 
Q 1697 3084 1428 2787 
Q 1159 2491 1159 1978 
L 1159 0 
L 581 0 
L 581 3500 
L 1159 3500 
L 1159 2956 
Q 1366 3272 1645 3428 
Q 1925 3584 2291 3584 
Q 2894 3584 3203 3211 
Q 3513 2838 3513 2113 
z
" transform="scale(0.015625)"/>
      </defs>
      <use xlink:href="#DejaVuSans-49"/>
      <use xlink:href="#DejaVuSans-74" x="29.492188"/>
      <use xlink:href="#DejaVuSans-65" x="68.701172"/>
      <use xlink:href="#DejaVuSans-72" x="130.224609"/>
      <use xlink:href="#DejaVuSans-61" x="171.337891"/>
      <use xlink:href="#DejaVuSans-74" x="232.617188"/>
      <use xlink:href="#DejaVuSans-69" x="271.826172"/>
      <use xlink:href="#DejaVuSans-6f" x="299.609375"/>
      <use xlink:href="#DejaVuSans-6e" x="360.791016"/>
     </g>
    </g>
   </g>
   <g id="matplotlib.axis_2">
    <g id="ytick_1">
     <g id="line2d_5">
      <defs>
       <path id="mc3a59a5bfb" d="M 0 0 
L -3.5 0 
" style="stroke: #000000; stroke-width: 0.8"/>
      </defs>
      <g>
       <use xlink:href="#mc3a59a5bfb" x="66.6" y="75.746884" style="stroke: #000000; stroke-width: 0.8"/>
      </g>
     </g>
     <g id="text_6">
      <!-- $\mathdefault{10^{-1}}$ -->
      <g transform="translate(40.8 78.786259) scale(0.08 -0.08)">
       <defs>
        <path id="DejaVuSans-2212" d="M 678 2272 
L 4684 2272 
L 4684 1741 
L 678 1741 
L 678 2272 
z
" transform="scale(0.015625)"/>
       </defs>
       <use xlink:href="#DejaVuSans-31" transform="translate(0 0.684375)"/>
       <use xlink:href="#DejaVuSans-30" transform="translate(63.623047 0.684375)"/>
       <use xlink:href="#DejaVuSans-2212" transform="translate(128.203125 38.965625) scale(0.7)"/>
       <use xlink:href="#DejaVuSans-31" transform="translate(186.855469 38.965625) scale(0.7)"/>
      </g>
     </g>
    </g>
    <g id="ytick_2">
     <g id="line2d_6">
      <g>
       <use xlink:href="#mc3a59a5bfb" x="66.6" y="54.610393" style="stroke: #000000; stroke-width: 0.8"/>
      </g>
     </g>
     <g id="text_7">
      <!-- $\mathdefault{10^{0}}$ -->
      <g transform="translate(45.52 57.649768) scale(0.08 -0.08)">
       <use xlink:href="#DejaVuSans-31" transform="translate(0 0.765625)"/>
       <use xlink:href="#DejaVuSans-30" transform="translate(63.623047 0.765625)"/>
       <use xlink:href="#DejaVuSans-30" transform="translate(128.203125 39.046875) scale(0.7)"/>
      </g>
     </g>
    </g>
    <g id="ytick_3">
     <g id="line2d_7">
      <g>
       <use xlink:href="#mc3a59a5bfb" x="66.6" y="33.473901" style="stroke: #000000; stroke-width: 0.8"/>
      </g>
     </g>
     <g id="text_8">
      <!-- $\mathdefault{10^{1}}$ -->
      <g transform="translate(45.52 36.513276) scale(0.08 -0.08)">
       <use xlink:href="#DejaVuSans-31" transform="translate(0 0.684375)"/>
       <use xlink:href="#DejaVuSans-30" transform="translate(63.623047 0.684375)"/>
       <use xlink:href="#DejaVuSans-31" transform="translate(128.203125 38.965625) scale(0.7)"/>
      </g>
     </g>
    </g>
    <g id="ytick_4">
     <g id="line2d_8">
      <defs>
       <path id="macb368d34b" d="M 0 0 
L -2 0 
" style="stroke: #000000; stroke-width: 0.6"/>
      </defs>
      <g>
       <use xlink:href="#macb368d34b" x="66.6" y="90.520658" style="stroke: #000000; stroke-width: 0.6"/>
      </g>
     </g>
    </g>
    <g id="ytick_5">
     <g id="line2d_9">
      <g>
       <use xlink:href="#macb368d34b" x="66.6" y="86.798707" style="stroke: #000000; stroke-width: 0.6"/>
      </g>
     </g>
    </g>
    <g id="ytick_6">
     <g id="line2d_10">
      <g>
       <use xlink:href="#macb368d34b" x="66.6" y="84.15794" style="stroke: #000000; stroke-width: 0.6"/>
      </g>
     </g>
    </g>
    <g id="ytick_7">
     <g id="line2d_11">
      <g>
       <use xlink:href="#macb368d34b" x="66.6" y="82.109602" style="stroke: #000000; stroke-width: 0.6"/>
      </g>
     </g>
    </g>
    <g id="ytick_8">
     <g id="line2d_12">
      <g>
       <use xlink:href="#macb368d34b" x="66.6" y="80.435989" style="stroke: #000000; stroke-width: 0.6"/>
      </g>
     </g>
    </g>
    <g id="ytick_9">
     <g id="line2d_13">
      <g>
       <use xlink:href="#macb368d34b" x="66.6" y="79.020968" style="stroke: #000000; stroke-width: 0.6"/>
      </g>
     </g>
    </g>
    <g id="ytick_10">
     <g id="line2d_14">
      <g>
       <use xlink:href="#macb368d34b" x="66.6" y="77.795222" style="stroke: #000000; stroke-width: 0.6"/>
      </g>
     </g>
    </g>
    <g id="ytick_11">
     <g id="line2d_15">
      <g>
       <use xlink:href="#macb368d34b" x="66.6" y="76.714037" style="stroke: #000000; stroke-width: 0.6"/>
      </g>
     </g>
    </g>
    <g id="ytick_12">
     <g id="line2d_16">
      <g>
       <use xlink:href="#macb368d34b" x="66.6" y="69.384166" style="stroke: #000000; stroke-width: 0.6"/>
      </g>
     </g>
    </g>
    <g id="ytick_13">
     <g id="line2d_17">
      <g>
       <use xlink:href="#macb368d34b" x="66.6" y="65.662215" style="stroke: #000000; stroke-width: 0.6"/>
      </g>
     </g>
    </g>
    <g id="ytick_14">
     <g id="line2d_18">
      <g>
       <use xlink:href="#macb368d34b" x="66.6" y="63.021448" style="stroke: #000000; stroke-width: 0.6"/>
      </g>
     </g>
    </g>
    <g id="ytick_15">
     <g id="line2d_19">
      <g>
       <use xlink:href="#macb368d34b" x="66.6" y="60.973111" style="stroke: #000000; stroke-width: 0.6"/>
      </g>
     </g>
    </g>
    <g id="ytick_16">
     <g id="line2d_20">
      <g>
       <use xlink:href="#macb368d34b" x="66.6" y="59.299497" style="stroke: #000000; stroke-width: 0.6"/>
      </g>
     </g>
    </g>
    <g id="ytick_17">
     <g id="line2d_21">
      <g>
       <use xlink:href="#macb368d34b" x="66.6" y="57.884477" style="stroke: #000000; stroke-width: 0.6"/>
      </g>
     </g>
    </g>
    <g id="ytick_18">
     <g id="line2d_22">
      <g>
       <use xlink:href="#macb368d34b" x="66.6" y="56.65873" style="stroke: #000000; stroke-width: 0.6"/>
      </g>
     </g>
    </g>
    <g id="ytick_19">
     <g id="line2d_23">
      <g>
       <use xlink:href="#macb368d34b" x="66.6" y="55.577545" style="stroke: #000000; stroke-width: 0.6"/>
      </g>
     </g>
    </g>
    <g id="ytick_20">
     <g id="line2d_24">
      <g>
       <use xlink:href="#macb368d34b" x="66.6" y="48.247675" style="stroke: #000000; stroke-width: 0.6"/>
      </g>
     </g>
    </g>
    <g id="ytick_21">
     <g id="line2d_25">
      <g>
       <use xlink:href="#macb368d34b" x="66.6" y="44.525723" style="stroke: #000000; stroke-width: 0.6"/>
      </g>
     </g>
    </g>
    <g id="ytick_22">
     <g id="line2d_26">
      <g>
       <use xlink:href="#macb368d34b" x="66.6" y="41.884957" style="stroke: #000000; stroke-width: 0.6"/>
      </g>
     </g>
    </g>
    <g id="ytick_23">
     <g id="line2d_27">
      <g>
       <use xlink:href="#macb368d34b" x="66.6" y="39.836619" style="stroke: #000000; stroke-width: 0.6"/>
      </g>
     </g>
    </g>
    <g id="ytick_24">
     <g id="line2d_28">
      <g>
       <use xlink:href="#macb368d34b" x="66.6" y="38.163005" style="stroke: #000000; stroke-width: 0.6"/>
      </g>
     </g>
    </g>
    <g id="ytick_25">
     <g id="line2d_29">
      <g>
       <use xlink:href="#macb368d34b" x="66.6" y="36.747985" style="stroke: #000000; stroke-width: 0.6"/>
      </g>
     </g>
    </g>
    <g id="ytick_26">
     <g id="line2d_30">
      <g>
       <use xlink:href="#macb368d34b" x="66.6" y="35.522239" style="stroke: #000000; stroke-width: 0.6"/>
      </g>
     </g>
    </g>
    <g id="ytick_27">
     <g id="line2d_31">
      <g>
       <use xlink:href="#macb368d34b" x="66.6" y="34.441054" style="stroke: #000000; stroke-width: 0.6"/>
      </g>
     </g>
    </g>
    <g id="ytick_28">
     <g id="line2d_32">
      <g>
       <use xlink:href="#macb368d34b" x="66.6" y="27.111183" style="stroke: #000000; stroke-width: 0.6"/>
      </g>
     </g>
    </g>
    <g id="ytick_29">
     <g id="line2d_33">
      <g>
       <use xlink:href="#macb368d34b" x="66.6" y="23.389231" style="stroke: #000000; stroke-width: 0.6"/>
      </g>
     </g>
    </g>
    <g id="ytick_30">
     <g id="line2d_34">
      <g>
       <use xlink:href="#macb368d34b" x="66.6" y="20.748465" style="stroke: #000000; stroke-width: 0.6"/>
      </g>
     </g>
    </g>
    <g id="ytick_31">
     <g id="line2d_35">
      <g>
       <use xlink:href="#macb368d34b" x="66.6" y="18.700127" style="stroke: #000000; stroke-width: 0.6"/>
      </g>
     </g>
    </g>
    <g id="ytick_32">
     <g id="line2d_36">
      <g>
       <use xlink:href="#macb368d34b" x="66.6" y="17.026513" style="stroke: #000000; stroke-width: 0.6"/>
      </g>
     </g>
    </g>
    <g id="ytick_33">
     <g id="line2d_37">
      <g>
       <use xlink:href="#macb368d34b" x="66.6" y="15.611493" style="stroke: #000000; stroke-width: 0.6"/>
      </g>
     </g>
    </g>
    <g id="ytick_34">
     <g id="line2d_38">
      <g>
       <use xlink:href="#macb368d34b" x="66.6" y="14.385747" style="stroke: #000000; stroke-width: 0.6"/>
      </g>
     </g>
    </g>
    <g id="ytick_35">
     <g id="line2d_39">
      <g>
       <use xlink:href="#macb368d34b" x="66.6" y="13.304562" style="stroke: #000000; stroke-width: 0.6"/>
      </g>
     </g>
    </g>
    <g id="text_9">
     <!-- Maximum residual -->
     <g transform="translate(35.13625 91.3675) rotate(-90) scale(0.08 -0.08)">
      <defs>
       <path id="DejaVuSans-4d" d="M 628 4666 
L 1569 4666 
L 2759 1491 
L 3956 4666 
L 4897 4666 
L 4897 0 
L 4281 0 
L 4281 4097 
L 3078 897 
L 2444 897 
L 1241 4097 
L 1241 0 
L 628 0 
L 628 4666 
z
" transform="scale(0.015625)"/>
       <path id="DejaVuSans-78" d="M 3513 3500 
L 2247 1797 
L 3578 0 
L 2900 0 
L 1881 1375 
L 863 0 
L 184 0 
L 1544 1831 
L 300 3500 
L 978 3500 
L 1906 2253 
L 2834 3500 
L 3513 3500 
z
" transform="scale(0.015625)"/>
       <path id="DejaVuSans-6d" d="M 3328 2828 
Q 3544 3216 3844 3400 
Q 4144 3584 4550 3584 
Q 5097 3584 5394 3201 
Q 5691 2819 5691 2113 
L 5691 0 
L 5113 0 
L 5113 2094 
Q 5113 2597 4934 2840 
Q 4756 3084 4391 3084 
Q 3944 3084 3684 2787 
Q 3425 2491 3425 1978 
L 3425 0 
L 2847 0 
L 2847 2094 
Q 2847 2600 2669 2842 
Q 2491 3084 2119 3084 
Q 1678 3084 1418 2786 
Q 1159 2488 1159 1978 
L 1159 0 
L 581 0 
L 581 3500 
L 1159 3500 
L 1159 2956 
Q 1356 3278 1631 3431 
Q 1906 3584 2284 3584 
Q 2666 3584 2933 3390 
Q 3200 3197 3328 2828 
z
" transform="scale(0.015625)"/>
       <path id="DejaVuSans-75" d="M 544 1381 
L 544 3500 
L 1119 3500 
L 1119 1403 
Q 1119 906 1312 657 
Q 1506 409 1894 409 
Q 2359 409 2629 706 
Q 2900 1003 2900 1516 
L 2900 3500 
L 3475 3500 
L 3475 0 
L 2900 0 
L 2900 538 
Q 2691 219 2414 64 
Q 2138 -91 1772 -91 
Q 1169 -91 856 284 
Q 544 659 544 1381 
z
M 1991 3584 
L 1991 3584 
z
" transform="scale(0.015625)"/>
       <path id="DejaVuSans-20" transform="scale(0.015625)"/>
       <path id="DejaVuSans-73" d="M 2834 3397 
L 2834 2853 
Q 2591 2978 2328 3040 
Q 2066 3103 1784 3103 
Q 1356 3103 1142 2972 
Q 928 2841 928 2578 
Q 928 2378 1081 2264 
Q 1234 2150 1697 2047 
L 1894 2003 
Q 2506 1872 2764 1633 
Q 3022 1394 3022 966 
Q 3022 478 2636 193 
Q 2250 -91 1575 -91 
Q 1294 -91 989 -36 
Q 684 19 347 128 
L 347 722 
Q 666 556 975 473 
Q 1284 391 1588 391 
Q 1994 391 2212 530 
Q 2431 669 2431 922 
Q 2431 1156 2273 1281 
Q 2116 1406 1581 1522 
L 1381 1569 
Q 847 1681 609 1914 
Q 372 2147 372 2553 
Q 372 3047 722 3315 
Q 1072 3584 1716 3584 
Q 2034 3584 2315 3537 
Q 2597 3491 2834 3397 
z
" transform="scale(0.015625)"/>
       <path id="DejaVuSans-64" d="M 2906 2969 
L 2906 4863 
L 3481 4863 
L 3481 0 
L 2906 0 
L 2906 525 
Q 2725 213 2448 61 
Q 2172 -91 1784 -91 
Q 1150 -91 751 415 
Q 353 922 353 1747 
Q 353 2572 751 3078 
Q 1150 3584 1784 3584 
Q 2172 3584 2448 3432 
Q 2725 3281 2906 2969 
z
M 947 1747 
Q 947 1113 1208 752 
Q 1469 391 1925 391 
Q 2381 391 2643 752 
Q 2906 1113 2906 1747 
Q 2906 2381 2643 2742 
Q 2381 3103 1925 3103 
Q 1469 3103 1208 2742 
Q 947 2381 947 1747 
z
" transform="scale(0.015625)"/>
       <path id="DejaVuSans-6c" d="M 603 4863 
L 1178 4863 
L 1178 0 
L 603 0 
L 603 4863 
z
" transform="scale(0.015625)"/>
      </defs>
      <use xlink:href="#DejaVuSans-4d"/>
      <use xlink:href="#DejaVuSans-61" x="86.279297"/>
      <use xlink:href="#DejaVuSans-78" x="147.558594"/>
      <use xlink:href="#DejaVuSans-69" x="206.738281"/>
      <use xlink:href="#DejaVuSans-6d" x="234.521484"/>
      <use xlink:href="#DejaVuSans-75" x="331.933594"/>
      <use xlink:href="#DejaVuSans-6d" x="395.3125"/>
      <use xlink:href="#DejaVuSans-20" x="492.724609"/>
      <use xlink:href="#DejaVuSans-72" x="524.511719"/>
      <use xlink:href="#DejaVuSans-65" x="563.375"/>
      <use xlink:href="#DejaVuSans-73" x="624.898438"/>
      <use xlink:href="#DejaVuSans-69" x="676.998047"/>
      <use xlink:href="#DejaVuSans-64" x="704.78125"/>
      <use xlink:href="#DejaVuSans-75" x="768.257812"/>
      <use xlink:href="#DejaVuSans-61" x="831.636719"/>
      <use xlink:href="#DejaVuSans-6c" x="892.916016"/>
     </g>
    </g>
   </g>
   <g id="line2d_40">
    <path d="M 74.760474 16.74 
L 75.658176 37.516968 
L 76.564946 33.211084 
L 77.471716 35.546475 
L 78.378486 36.554752 
L 79.285255 40.444375 
L 80.192025 39.723772 
L 81.098795 38.497582 
L 82.005565 36.746285 
L 82.912334 35.406569 
L 83.819104 36.222172 
L 84.725874 34.36964 
L 85.632644 35.695897 
L 87.446183 30.898281 
L 88.352953 34.341091 
L 89.259723 33.79885 
L 90.166492 36.681991 
L 91.073262 34.614072 
L 91.980032 37.400937 
L 92.886801 37.154803 
L 94.700341 42.751197 
L 95.607111 42.589726 
L 96.51388 43.711059 
L 97.42065 47.034022 
L 99.23419 55.659487 
L 100.140959 56.165895 
L 101.047729 58.155839 
L 101.954499 58.932512 
L 102.861269 61.285136 
L 103.768038 60.835276 
L 104.674808 63.040602 
L 105.581578 64.711848 
L 106.488348 64.606266 
L 107.395117 65.22912 
L 108.301887 66.120692 
L 109.208657 65.310411 
L 110.115427 66.263468 
L 111.022196 67.920157 
L 111.928966 68.526936 
L 112.835736 68.512691 
L 113.742506 69.147117 
L 114.649275 68.068362 
L 115.556045 68.579402 
L 116.462815 69.61926 
L 117.369585 68.829609 
L 118.276354 70.64782 
L 119.183124 71.740974 
L 120.089894 72.380808 
L 120.996664 72.840933 
L 121.903433 73.883907 
L 122.810203 72.831367 
L 123.716973 73.492723 
L 124.623743 73.036027 
L 126.437282 72.602521 
L 127.344052 72.81167 
L 129.157591 74.120814 
L 130.064361 35.919125 
L 130.971131 43.705334 
L 131.8779 46.479515 
L 135.504979 52.947063 
L 136.411749 55.089209 
L 137.318519 55.464873 
L 138.225289 56.415049 
L 139.132058 63.550246 
L 140.038828 67.475945 
L 140.945598 67.838127 
L 141.852368 69.845879 
L 142.759137 69.647912 
L 143.665907 71.698069 
L 145.479447 74.3755 
L 146.386216 74.999834 
L 147.292986 75.766881 
L 148.199756 78.065121 
L 149.106526 78.056565 
L 150.013295 77.09966 
L 150.920065 76.809065 
L 151.826835 77.800268 
L 152.733605 77.624476 
L 153.640374 78.943929 
L 154.547144 79.076719 
L 155.453914 79.710068 
L 156.360684 78.977627 
L 157.267453 79.537711 
L 158.174223 79.573207 
L 159.987763 80.146183 
L 160.894532 80.132263 
L 161.801302 80.335741 
L 162.708072 81.2972 
L 163.614841 81.084909 
L 164.521611 82.497795 
L 165.428381 81.428281 
L 166.335151 82.243909 
L 167.24192 82.547373 
L 168.14869 82.697525 
L 169.05546 82.665071 
L 169.96223 82.891505 
L 170.868999 82.731698 
L 171.775769 83.662933 
L 172.682539 83.464774 
L 173.589309 83.968207 
L 174.496078 83.684699 
L 175.402848 84.152017 
L 176.309618 83.701821 
L 177.216388 84.393356 
L 178.123157 84.08419 
L 179.029927 85.420163 
L 179.936697 85.837461 
L 180.843467 86.400426 
L 181.750236 85.434622 
L 182.657006 86.171958 
L 183.563776 86.299969 
L 184.470546 31.095212 
L 186.284085 41.254125 
L 187.190855 44.005424 
L 188.097625 46.398753 
L 189.004394 47.330016 
L 189.911164 49.133625 
L 190.817934 49.276561 
L 191.724704 50.311431 
L 192.631473 52.320458 
L 193.538243 53.488352 
L 194.445013 61.412899 
L 195.351783 60.641005 
L 196.258552 61.800374 
L 197.165322 67.285523 
L 198.072092 70.302969 
L 199.885631 72.339359 
L 200.792401 73.122882 
L 201.699171 74.226103 
L 202.60594 74.663098 
L 203.51271 76.794316 
L 204.41948 77.255974 
L 205.32625 75.913012 
L 206.233019 76.764638 
L 207.139789 78.271758 
L 208.046559 77.956515 
L 208.953329 78.849308 
L 209.860098 78.276652 
L 210.766868 78.471544 
L 211.673638 78.953807 
L 212.580408 78.247727 
L 213.487177 78.263206 
L 214.393947 79.033174 
L 217.114256 79.479704 
L 218.021026 80.888432 
L 218.927796 81.556848 
L 220.741335 81.223011 
L 222.554875 83.130178 
L 223.461645 82.553212 
L 224.368414 82.678461 
L 225.275184 82.684229 
L 226.181954 83.31334 
L 227.088724 83.305048 
L 227.995493 84.222633 
L 228.902263 84.569028 
L 229.809033 84.449563 
L 230.715803 84.174916 
L 232.529342 85.201528 
L 233.436112 84.860261 
L 234.342881 85.675295 
L 235.249651 86.695723 
L 237.063191 87.355211 
L 237.96996 87.341095 
L 237.96996 87.341095 
" clip-path="url(#p5448dcb99d)" style="fill: none; stroke: #808080; stroke-opacity: 0.5; stroke-width: 2; stroke-linecap: square"/>
   </g>
   <g id="line2d_41">
    <path d="M 74.760474 16.74 
L 75.658176 37.516963 
L 76.564946 33.211092 
L 77.471716 35.546484 
L 78.378486 37.414902 
L 79.285255 40.464535 
L 80.192025 39.856695 
L 81.098795 38.494525 
L 82.005565 37.605089 
L 82.912334 35.826096 
L 83.819104 36.193896 
L 84.725874 34.40268 
L 85.632644 35.69458 
L 86.539413 33.503818 
L 87.446183 30.559764 
L 88.352953 34.554107 
L 89.259723 32.944689 
L 90.166492 36.878729 
L 91.073262 37.134912 
L 91.980032 37.650116 
L 92.886801 37.247111 
L 93.793571 39.49365 
L 94.700341 41.272959 
L 95.607111 41.358368 
L 96.51388 43.343703 
L 97.42065 43.950627 
L 98.32742 47.236022 
L 99.23419 49.864997 
L 100.140959 51.63463 
L 101.954499 54.525462 
L 102.861269 56.586246 
L 103.768038 56.915497 
L 104.674808 58.130987 
L 105.581578 57.950096 
L 107.395117 60.209739 
L 108.301887 61.350265 
L 109.208657 62.198726 
L 110.115427 62.641065 
L 111.022196 62.660072 
L 111.928966 63.325087 
L 112.835736 63.531123 
L 113.742506 64.988682 
L 114.649275 65.500072 
L 115.556045 65.602305 
L 116.462815 67.083399 
L 117.369585 67.056885 
L 118.276354 68.26725 
L 119.183124 68.350118 
L 120.089894 68.568687 
L 121.903433 70.215582 
L 122.810203 70.896954 
L 123.716973 72.267219 
L 124.623743 72.88896 
L 125.530512 72.839792 
L 126.437282 73.090093 
L 127.344052 73.524747 
L 128.250821 73.083988 
L 129.157591 73.270221 
L 130.064361 50.763577 
L 130.971131 53.512305 
L 131.8779 54.725559 
L 132.78467 57.246219 
L 134.59821 63.38299 
L 135.504979 63.884149 
L 136.411749 65.397908 
L 137.318519 66.233843 
L 138.225289 66.371721 
L 139.132058 67.210723 
L 140.038828 69.514022 
L 140.945598 70.549465 
L 142.759137 72.851754 
L 143.665907 76.010236 
L 144.572677 76.770609 
L 145.479447 79.884985 
L 146.386216 80.086582 
L 147.292986 81.766294 
L 148.199756 82.373331 
L 149.106526 82.346266 
L 150.013295 82.57566 
L 150.920065 83.324649 
L 151.826835 83.058199 
L 153.640374 84.253351 
L 154.547144 84.370797 
L 155.453914 84.642355 
L 156.360684 85.291024 
L 157.267453 85.692635 
L 159.987763 85.413731 
L 160.894532 86.343774 
L 161.801302 86.576578 
L 162.708072 87.390003 
L 163.614841 87.011525 
L 164.521611 87.76229 
L 165.428381 88.054626 
L 166.335151 88.665675 
L 167.24192 88.87423 
L 168.14869 88.000804 
L 169.05546 88.273116 
L 169.96223 89.031332 
L 170.868999 89.243467 
L 171.775769 89.943696 
L 172.682539 90.156051 
L 174.496078 90.844702 
L 175.402848 91.065044 
L 176.309618 91.443066 
L 177.216388 91.282419 
L 178.123157 90.963293 
L 179.029927 91.193966 
L 179.936697 91.032424 
L 180.843467 91.294216 
L 181.750236 91.738906 
L 182.657006 91.758248 
L 183.563776 92.34 
L 184.470546 45.432627 
L 185.377315 54.692075 
L 186.284085 55.308622 
L 187.190855 52.677176 
L 188.097625 54.596031 
L 189.004394 58.15557 
L 189.911164 51.953394 
L 190.817934 58.151065 
L 191.724704 61.049768 
L 192.631473 61.572096 
L 193.538243 65.526094 
L 194.445013 68.573792 
L 195.351783 70.680731 
L 196.258552 71.850294 
L 197.165322 73.441705 
L 198.072092 74.284921 
L 198.978861 75.561293 
L 199.885631 77.626427 
L 203.51271 82.143464 
L 204.41948 82.334661 
L 205.32625 83.04952 
L 206.233019 83.957058 
L 207.139789 84.558027 
L 208.046559 83.796247 
L 208.953329 83.876961 
L 209.860098 84.923402 
L 210.766868 86.15349 
L 211.673638 86.681068 
L 212.580408 86.371485 
L 213.487177 86.814893 
L 214.393947 88.400927 
L 215.300717 87.860029 
L 217.114256 88.304623 
L 218.021026 87.995078 
L 218.927796 87.985374 
L 219.834566 87.124967 
L 220.741335 87.534632 
L 221.648105 88.808444 
L 222.554875 88.234563 
L 223.461645 88.936378 
L 224.368414 88.887374 
L 225.275184 89.538651 
L 226.181954 90.405764 
L 227.995493 90.071592 
L 228.902263 90.083508 
L 230.715803 91.215264 
L 231.622572 90.457424 
L 232.529342 89.901782 
L 233.436112 90.506666 
L 234.342881 90.103138 
L 235.249651 89.874423 
L 236.156421 90.721197 
L 237.063191 90.735596 
L 237.96996 91.281304 
L 237.96996 91.281304 
" clip-path="url(#p5448dcb99d)" style="fill: none; stroke: #00ff0d; stroke-opacity: 0.5; stroke-width: 2; stroke-linecap: square"/>
   </g>
   <g id="patch_3">
    <path d="M 66.6 96.12 
L 66.6 12.96 
" style="fill: none; stroke: #000000; stroke-width: 0.8; stroke-linejoin: miter; stroke-linecap: square"/>
   </g>
   <g id="patch_4">
    <path d="M 246.130435 96.12 
L 246.130435 12.96 
" style="fill: none; stroke: #000000; stroke-width: 0.8; stroke-linejoin: miter; stroke-linecap: square"/>
   </g>
   <g id="patch_5">
    <path d="M 66.6 96.12 
L 246.130435 96.12 
" style="fill: none; stroke: #000000; stroke-width: 0.8; stroke-linejoin: miter; stroke-linecap: square"/>
   </g>
   <g id="patch_6">
    <path d="M 66.6 12.96 
L 246.130435 12.96 
" style="fill: none; stroke: #000000; stroke-width: 0.8; stroke-linejoin: miter; stroke-linecap: square"/>
   </g>
  </g>
  <g id="axes_2">
   <g id="patch_7">
    <path d="M 299.989565 96.12 
L 479.52 96.12 
L 479.52 12.96 
L 299.989565 12.96 
z
" style="fill: #ffffff"/>
   </g>
   <g id="matplotlib.axis_3">
    <g id="xtick_5">
     <g id="line2d_42">
      <g>
       <use xlink:href="#m177ce89ba7" x="308.140972" y="96.12" style="stroke: #000000; stroke-width: 0.8"/>
      </g>
     </g>
     <g id="text_10">
      <!-- 0 -->
      <g transform="translate(305.595972 109.19875) scale(0.08 -0.08)">
       <use xlink:href="#DejaVuSans-30"/>
      </g>
     </g>
    </g>
    <g id="xtick_6">
     <g id="line2d_43">
      <g>
       <use xlink:href="#m177ce89ba7" x="353.479459" y="96.12" style="stroke: #000000; stroke-width: 0.8"/>
      </g>
     </g>
     <g id="text_11">
      <!-- 5000 -->
      <g transform="translate(343.299459 109.19875) scale(0.08 -0.08)">
       <use xlink:href="#DejaVuSans-35"/>
       <use xlink:href="#DejaVuSans-30" x="63.623047"/>
       <use xlink:href="#DejaVuSans-30" x="127.246094"/>
       <use xlink:href="#DejaVuSans-30" x="190.869141"/>
      </g>
     </g>
    </g>
    <g id="xtick_7">
     <g id="line2d_44">
      <g>
       <use xlink:href="#m177ce89ba7" x="398.817946" y="96.12" style="stroke: #000000; stroke-width: 0.8"/>
      </g>
     </g>
     <g id="text_12">
      <!-- 10000 -->
      <g transform="translate(386.092946 109.19875) scale(0.08 -0.08)">
       <use xlink:href="#DejaVuSans-31"/>
       <use xlink:href="#DejaVuSans-30" x="63.623047"/>
       <use xlink:href="#DejaVuSans-30" x="127.246094"/>
       <use xlink:href="#DejaVuSans-30" x="190.869141"/>
       <use xlink:href="#DejaVuSans-30" x="254.492188"/>
      </g>
     </g>
    </g>
    <g id="xtick_8">
     <g id="line2d_45">
      <g>
       <use xlink:href="#m177ce89ba7" x="444.156433" y="96.12" style="stroke: #000000; stroke-width: 0.8"/>
      </g>
     </g>
     <g id="text_13">
      <!-- 15000 -->
      <g transform="translate(431.431433 109.19875) scale(0.08 -0.08)">
       <use xlink:href="#DejaVuSans-31"/>
       <use xlink:href="#DejaVuSans-35" x="63.623047"/>
       <use xlink:href="#DejaVuSans-30" x="127.246094"/>
       <use xlink:href="#DejaVuSans-30" x="190.869141"/>
       <use xlink:href="#DejaVuSans-30" x="254.492188"/>
      </g>
     </g>
    </g>
    <g id="text_14">
     <!-- Iteration -->
     <g transform="translate(372.787908 120.94125) scale(0.08 -0.08)">
      <use xlink:href="#DejaVuSans-49"/>
      <use xlink:href="#DejaVuSans-74" x="29.492188"/>
      <use xlink:href="#DejaVuSans-65" x="68.701172"/>
      <use xlink:href="#DejaVuSans-72" x="130.224609"/>
      <use xlink:href="#DejaVuSans-61" x="171.337891"/>
      <use xlink:href="#DejaVuSans-74" x="232.617188"/>
      <use xlink:href="#DejaVuSans-69" x="271.826172"/>
      <use xlink:href="#DejaVuSans-6f" x="299.609375"/>
      <use xlink:href="#DejaVuSans-6e" x="360.791016"/>
     </g>
    </g>
   </g>
   <g id="matplotlib.axis_4">
    <g id="ytick_36">
     <g id="line2d_46">
      <g>
       <use xlink:href="#mc3a59a5bfb" x="299.989565" y="95.660565" style="stroke: #000000; stroke-width: 0.8"/>
      </g>
     </g>
     <g id="text_15">
      <!-- 0.0 -->
      <g transform="translate(280.267065 98.69994) scale(0.08 -0.08)">
       <defs>
        <path id="DejaVuSans-2e" d="M 684 794 
L 1344 794 
L 1344 0 
L 684 0 
L 684 794 
z
" transform="scale(0.015625)"/>
       </defs>
       <use xlink:href="#DejaVuSans-30"/>
       <use xlink:href="#DejaVuSans-2e" x="63.623047"/>
       <use xlink:href="#DejaVuSans-30" x="95.410156"/>
      </g>
     </g>
    </g>
    <g id="ytick_37">
     <g id="line2d_47">
      <g>
       <use xlink:href="#mc3a59a5bfb" x="299.989565" y="70.807734" style="stroke: #000000; stroke-width: 0.8"/>
      </g>
     </g>
     <g id="text_16">
      <!-- 0.5 -->
      <g transform="translate(280.267065 73.847109) scale(0.08 -0.08)">
       <use xlink:href="#DejaVuSans-30"/>
       <use xlink:href="#DejaVuSans-2e" x="63.623047"/>
       <use xlink:href="#DejaVuSans-35" x="95.410156"/>
      </g>
     </g>
    </g>
    <g id="ytick_38">
     <g id="line2d_48">
      <g>
       <use xlink:href="#mc3a59a5bfb" x="299.989565" y="45.954902" style="stroke: #000000; stroke-width: 0.8"/>
      </g>
     </g>
     <g id="text_17">
      <!-- 1.0 -->
      <g transform="translate(280.267065 48.994277) scale(0.08 -0.08)">
       <use xlink:href="#DejaVuSans-31"/>
       <use xlink:href="#DejaVuSans-2e" x="63.623047"/>
       <use xlink:href="#DejaVuSans-30" x="95.410156"/>
      </g>
     </g>
    </g>
    <g id="ytick_39">
     <g id="line2d_49">
      <g>
       <use xlink:href="#mc3a59a5bfb" x="299.989565" y="21.10207" style="stroke: #000000; stroke-width: 0.8"/>
      </g>
     </g>
     <g id="text_18">
      <!-- 1.5 -->
      <g transform="translate(280.267065 24.141445) scale(0.08 -0.08)">
       <use xlink:href="#DejaVuSans-31"/>
       <use xlink:href="#DejaVuSans-2e" x="63.623047"/>
       <use xlink:href="#DejaVuSans-35" x="95.410156"/>
      </g>
     </g>
    </g>
    <g id="text_19">
     <!-- Relative Error -->
     <g transform="translate(274.603315 81.690625) rotate(-90) scale(0.08 -0.08)">
      <defs>
       <path id="DejaVuSans-52" d="M 2841 2188 
Q 3044 2119 3236 1894 
Q 3428 1669 3622 1275 
L 4263 0 
L 3584 0 
L 2988 1197 
Q 2756 1666 2539 1819 
Q 2322 1972 1947 1972 
L 1259 1972 
L 1259 0 
L 628 0 
L 628 4666 
L 2053 4666 
Q 2853 4666 3247 4331 
Q 3641 3997 3641 3322 
Q 3641 2881 3436 2590 
Q 3231 2300 2841 2188 
z
M 1259 4147 
L 1259 2491 
L 2053 2491 
Q 2509 2491 2742 2702 
Q 2975 2913 2975 3322 
Q 2975 3731 2742 3939 
Q 2509 4147 2053 4147 
L 1259 4147 
z
" transform="scale(0.015625)"/>
       <path id="DejaVuSans-76" d="M 191 3500 
L 800 3500 
L 1894 563 
L 2988 3500 
L 3597 3500 
L 2284 0 
L 1503 0 
L 191 3500 
z
" transform="scale(0.015625)"/>
       <path id="DejaVuSans-45" d="M 628 4666 
L 3578 4666 
L 3578 4134 
L 1259 4134 
L 1259 2753 
L 3481 2753 
L 3481 2222 
L 1259 2222 
L 1259 531 
L 3634 531 
L 3634 0 
L 628 0 
L 628 4666 
z
" transform="scale(0.015625)"/>
      </defs>
      <use xlink:href="#DejaVuSans-52"/>
      <use xlink:href="#DejaVuSans-65" x="64.982422"/>
      <use xlink:href="#DejaVuSans-6c" x="126.505859"/>
      <use xlink:href="#DejaVuSans-61" x="154.289062"/>
      <use xlink:href="#DejaVuSans-74" x="215.568359"/>
      <use xlink:href="#DejaVuSans-69" x="254.777344"/>
      <use xlink:href="#DejaVuSans-76" x="282.560547"/>
      <use xlink:href="#DejaVuSans-65" x="341.740234"/>
      <use xlink:href="#DejaVuSans-20" x="403.263672"/>
      <use xlink:href="#DejaVuSans-45" x="435.050781"/>
      <use xlink:href="#DejaVuSans-72" x="498.234375"/>
      <use xlink:href="#DejaVuSans-72" x="537.597656"/>
      <use xlink:href="#DejaVuSans-6f" x="576.460938"/>
      <use xlink:href="#DejaVuSans-72" x="637.642578"/>
     </g>
    </g>
   </g>
   <g id="line2d_50">
    <path d="M 308.15004 16.74 
L 309.047742 50.863158 
L 309.954511 51.471357 
L 310.861281 53.82187 
L 311.768051 55.087303 
L 312.674821 57.100101 
L 313.58159 58.824399 
L 314.48836 59.50735 
L 315.39513 59.880007 
L 316.3019 59.782317 
L 317.208669 60.528826 
L 318.115439 63.487484 
L 319.022209 65.71324 
L 319.928978 67.39388 
L 320.835748 70.116536 
L 321.742518 74.762766 
L 325.369597 88.137689 
L 326.276367 88.680072 
L 327.183136 89.827869 
L 328.089906 90.522058 
L 329.903446 91.706435 
L 330.810215 91.453579 
L 332.623755 91.723844 
L 333.530525 92.105054 
L 335.344064 92.011817 
L 338.064373 91.902534 
L 338.971143 91.882049 
L 340.784683 92.026283 
L 343.504992 92.02342 
L 345.318531 91.96879 
L 348.038841 92.035632 
L 350.75915 91.967152 
L 354.386229 92.038961 
L 356.199768 91.970619 
L 362.547156 91.980492 
L 363.453926 76.586446 
L 364.360696 82.208085 
L 365.267466 84.49721 
L 366.174235 86.246489 
L 367.081005 87.305534 
L 367.987775 88.681458 
L 368.894545 89.649844 
L 369.801314 90.049845 
L 370.708084 89.785234 
L 371.614854 90.818783 
L 372.521624 92.106695 
L 373.428393 92.219334 
L 374.335163 92.071185 
L 377.055472 92.029912 
L 378.869012 92.026415 
L 395.190867 91.966912 
L 405.165334 91.976226 
L 416.953341 91.958228 
L 417.860111 67.918514 
L 418.766881 73.521094 
L 419.67365 77.85848 
L 420.58042 81.283474 
L 421.48719 83.489816 
L 422.39396 85.012679 
L 423.300729 85.837316 
L 424.207499 87.078162 
L 425.114269 87.946127 
L 426.021039 87.498365 
L 426.927808 91.546348 
L 427.834578 92.022603 
L 428.741348 92.268842 
L 429.648117 92.272454 
L 430.554887 92.064713 
L 431.461657 92.193566 
L 435.088736 92.035047 
L 436.902275 92.075828 
L 440.529354 91.978208 
L 443.249664 92.023626 
L 447.783512 91.991372 
L 450.503822 92.004577 
L 459.571519 91.975214 
L 471.359526 91.964112 
L 471.359526 91.964112 
" clip-path="url(#pefd398b939)" style="fill: none; stroke: #808080; stroke-opacity: 0.5; stroke-width: 2; stroke-linecap: square"/>
   </g>
   <g id="line2d_51">
    <path d="M 308.15004 16.74 
L 309.047742 50.863158 
L 309.954511 51.471358 
L 310.861281 53.821869 
L 311.768051 54.983185 
L 312.674821 57.102405 
L 313.58159 58.702427 
L 315.39513 60.318707 
L 316.3019 60.1724 
L 317.208669 60.591593 
L 318.115439 63.635887 
L 319.022209 65.746017 
L 319.928978 67.338379 
L 320.835748 70.334528 
L 323.556057 81.408387 
L 325.369597 87.381499 
L 326.276367 88.594973 
L 327.183136 89.586954 
L 328.089906 90.09159 
L 329.903446 91.426393 
L 331.716985 91.542445 
L 332.623755 91.586749 
L 333.530525 91.78416 
L 340.784683 92.199455 
L 341.691452 92.018628 
L 343.504992 92.030369 
L 348.94561 91.922325 
L 357.106538 91.985251 
L 362.547156 91.964409 
L 363.453926 75.678881 
L 364.360696 81.985259 
L 365.267466 85.124903 
L 366.174235 86.291484 
L 367.081005 87.931934 
L 367.987775 88.952387 
L 368.894545 88.998381 
L 370.708084 90.169917 
L 371.614854 90.185803 
L 372.521624 91.802376 
L 373.428393 92.015063 
L 374.335163 91.87357 
L 376.148703 92.029382 
L 381.589321 91.901016 
L 384.30963 92.008106 
L 387.02994 91.973594 
L 388.843479 91.916181 
L 400.631486 91.986036 
L 403.351795 91.954765 
L 416.953341 91.964168 
L 417.860111 78.491207 
L 418.766881 83.241913 
L 419.67365 86.305254 
L 420.58042 87.681985 
L 421.48719 88.576952 
L 422.39396 89.661263 
L 423.300729 86.606808 
L 424.207499 90.727456 
L 425.114269 90.769476 
L 426.021039 90.973169 
L 426.927808 92.306211 
L 427.834578 92.34 
L 429.648117 92.068179 
L 464.105368 91.926441 
L 471.359526 91.939991 
L 471.359526 91.939991 
" clip-path="url(#pefd398b939)" style="fill: none; stroke: #00ff0d; stroke-opacity: 0.5; stroke-width: 2; stroke-linecap: square"/>
   </g>
   <g id="patch_8">
    <path d="M 299.989565 96.12 
L 299.989565 12.96 
" style="fill: none; stroke: #000000; stroke-width: 0.8; stroke-linejoin: miter; stroke-linecap: square"/>
   </g>
   <g id="patch_9">
    <path d="M 479.52 96.12 
L 479.52 12.96 
" style="fill: none; stroke: #000000; stroke-width: 0.8; stroke-linejoin: miter; stroke-linecap: square"/>
   </g>
   <g id="patch_10">
    <path d="M 299.989565 96.12 
L 479.52 96.12 
" style="fill: none; stroke: #000000; stroke-width: 0.8; stroke-linejoin: miter; stroke-linecap: square"/>
   </g>
   <g id="patch_11">
    <path d="M 299.989565 12.96 
L 479.52 12.96 
" style="fill: none; stroke: #000000; stroke-width: 0.8; stroke-linejoin: miter; stroke-linecap: square"/>
   </g>
   <g id="legend_1">
    <g id="line2d_52">
     <path d="M 374.5225 23.43875 
L 382.5225 23.43875 
L 390.5225 23.43875 
" style="fill: none; stroke: #808080; stroke-opacity: 0.5; stroke-width: 2; stroke-linecap: square"/>
    </g>
    <g id="text_20">
     <!-- Control -->
     <g transform="translate(396.9225 26.23875) scale(0.08 -0.08)">
      <defs>
       <path id="DejaVuSans-43" d="M 4122 4306 
L 4122 3641 
Q 3803 3938 3442 4084 
Q 3081 4231 2675 4231 
Q 1875 4231 1450 3742 
Q 1025 3253 1025 2328 
Q 1025 1406 1450 917 
Q 1875 428 2675 428 
Q 3081 428 3442 575 
Q 3803 722 4122 1019 
L 4122 359 
Q 3791 134 3420 21 
Q 3050 -91 2638 -91 
Q 1578 -91 968 557 
Q 359 1206 359 2328 
Q 359 3453 968 4101 
Q 1578 4750 2638 4750 
Q 3056 4750 3426 4639 
Q 3797 4528 4122 4306 
z
" transform="scale(0.015625)"/>
      </defs>
      <use xlink:href="#DejaVuSans-43"/>
      <use xlink:href="#DejaVuSans-6f" x="69.824219"/>
      <use xlink:href="#DejaVuSans-6e" x="131.005859"/>
      <use xlink:href="#DejaVuSans-74" x="194.384766"/>
      <use xlink:href="#DejaVuSans-72" x="233.59375"/>
      <use xlink:href="#DejaVuSans-6f" x="272.457031"/>
      <use xlink:href="#DejaVuSans-6c" x="333.638672"/>
     </g>
    </g>
    <g id="line2d_53">
     <path d="M 374.5225 35.18125 
L 382.5225 35.18125 
L 390.5225 35.18125 
" style="fill: none; stroke: #00ff0d; stroke-opacity: 0.5; stroke-width: 2; stroke-linecap: square"/>
    </g>
    <g id="text_21">
     <!-- Adaptive Sampling -->
     <g transform="translate(396.9225 37.98125) scale(0.08 -0.08)">
      <defs>
       <path id="DejaVuSans-41" d="M 2188 4044 
L 1331 1722 
L 3047 1722 
L 2188 4044 
z
M 1831 4666 
L 2547 4666 
L 4325 0 
L 3669 0 
L 3244 1197 
L 1141 1197 
L 716 0 
L 50 0 
L 1831 4666 
z
" transform="scale(0.015625)"/>
       <path id="DejaVuSans-70" d="M 1159 525 
L 1159 -1331 
L 581 -1331 
L 581 3500 
L 1159 3500 
L 1159 2969 
Q 1341 3281 1617 3432 
Q 1894 3584 2278 3584 
Q 2916 3584 3314 3078 
Q 3713 2572 3713 1747 
Q 3713 922 3314 415 
Q 2916 -91 2278 -91 
Q 1894 -91 1617 61 
Q 1341 213 1159 525 
z
M 3116 1747 
Q 3116 2381 2855 2742 
Q 2594 3103 2138 3103 
Q 1681 3103 1420 2742 
Q 1159 2381 1159 1747 
Q 1159 1113 1420 752 
Q 1681 391 2138 391 
Q 2594 391 2855 752 
Q 3116 1113 3116 1747 
z
" transform="scale(0.015625)"/>
       <path id="DejaVuSans-53" d="M 3425 4513 
L 3425 3897 
Q 3066 4069 2747 4153 
Q 2428 4238 2131 4238 
Q 1616 4238 1336 4038 
Q 1056 3838 1056 3469 
Q 1056 3159 1242 3001 
Q 1428 2844 1947 2747 
L 2328 2669 
Q 3034 2534 3370 2195 
Q 3706 1856 3706 1288 
Q 3706 609 3251 259 
Q 2797 -91 1919 -91 
Q 1588 -91 1214 -16 
Q 841 59 441 206 
L 441 856 
Q 825 641 1194 531 
Q 1563 422 1919 422 
Q 2459 422 2753 634 
Q 3047 847 3047 1241 
Q 3047 1584 2836 1778 
Q 2625 1972 2144 2069 
L 1759 2144 
Q 1053 2284 737 2584 
Q 422 2884 422 3419 
Q 422 4038 858 4394 
Q 1294 4750 2059 4750 
Q 2388 4750 2728 4690 
Q 3069 4631 3425 4513 
z
" transform="scale(0.015625)"/>
       <path id="DejaVuSans-67" d="M 2906 1791 
Q 2906 2416 2648 2759 
Q 2391 3103 1925 3103 
Q 1463 3103 1205 2759 
Q 947 2416 947 1791 
Q 947 1169 1205 825 
Q 1463 481 1925 481 
Q 2391 481 2648 825 
Q 2906 1169 2906 1791 
z
M 3481 434 
Q 3481 -459 3084 -895 
Q 2688 -1331 1869 -1331 
Q 1566 -1331 1297 -1286 
Q 1028 -1241 775 -1147 
L 775 -588 
Q 1028 -725 1275 -790 
Q 1522 -856 1778 -856 
Q 2344 -856 2625 -561 
Q 2906 -266 2906 331 
L 2906 616 
Q 2728 306 2450 153 
Q 2172 0 1784 0 
Q 1141 0 747 490 
Q 353 981 353 1791 
Q 353 2603 747 3093 
Q 1141 3584 1784 3584 
Q 2172 3584 2450 3431 
Q 2728 3278 2906 2969 
L 2906 3500 
L 3481 3500 
L 3481 434 
z
" transform="scale(0.015625)"/>
      </defs>
      <use xlink:href="#DejaVuSans-41"/>
      <use xlink:href="#DejaVuSans-64" x="66.658203"/>
      <use xlink:href="#DejaVuSans-61" x="130.134766"/>
      <use xlink:href="#DejaVuSans-70" x="191.414062"/>
      <use xlink:href="#DejaVuSans-74" x="254.890625"/>
      <use xlink:href="#DejaVuSans-69" x="294.099609"/>
      <use xlink:href="#DejaVuSans-76" x="321.882812"/>
      <use xlink:href="#DejaVuSans-65" x="381.0625"/>
      <use xlink:href="#DejaVuSans-20" x="442.585938"/>
      <use xlink:href="#DejaVuSans-53" x="474.373047"/>
      <use xlink:href="#DejaVuSans-61" x="537.849609"/>
      <use xlink:href="#DejaVuSans-6d" x="599.128906"/>
      <use xlink:href="#DejaVuSans-70" x="696.541016"/>
      <use xlink:href="#DejaVuSans-6c" x="760.017578"/>
      <use xlink:href="#DejaVuSans-69" x="787.800781"/>
      <use xlink:href="#DejaVuSans-6e" x="815.583984"/>
      <use xlink:href="#DejaVuSans-67" x="878.962891"/>
     </g>
    </g>
   </g>
  </g>
 </g>
 <defs>
  <clipPath id="p5448dcb99d">
   <rect x="66.6" y="12.96" width="179.530435" height="83.16"/>
  </clipPath>
  <clipPath id="pefd398b939">
   <rect x="299.989565" y="12.96" width="179.530435" height="83.16"/>
  </clipPath>
 </defs>
</svg>
