<?xml version="1.0" encoding="utf-8" standalone="no"?>
<!DOCTYPE svg PUBLIC "-//W3C//DTD SVG 1.1//EN"
  "http://www.w3.org/Graphics/SVG/1.1/DTD/svg11.dtd">
<svg xmlns:xlink="http://www.w3.org/1999/xlink" width="482.4pt" height="216pt" viewBox="0 0 482.4 216" xmlns="http://www.w3.org/2000/svg" version="1.1">
 <metadata>
  <rdf:RDF xmlns:dc="http://purl.org/dc/elements/1.1/" xmlns:cc="http://creativecommons.org/ns#" xmlns:rdf="http://www.w3.org/1999/02/22-rdf-syntax-ns#">
   <cc:Work>
    <dc:type rdf:resource="http://purl.org/dc/dcmitype/StillImage"/>
    <dc:date>2026-04-12T18:42:31.112521</dc:date>
    <dc:format>image/svg+xml</dc:format>
    <dc:creator>
     <cc:Agent>
      <dc:title>Matplotlib v3.8.4, https://matplotlib.org/</dc:title>
     </cc:Agent>
    </dc:creator>
   </cc:Work>
  </rdf:RDF>
 </metadata>
 <defs>
  <style type="text/css">*{stroke-linejoin: round; stroke-linecap: butt}</style>
 </defs>
 <g id="figure_1">
  <g id="patch_1">
   <path d="M 0 216 
L 482.4 216 
L 482.4 0 
L 0 0 
z
" style="fill: #ffffff"/>
  </g>
  <g id="axes_1">
   <g id="patch_2">
    <path d="M 43.647765 74.724 
L 476.4 74.724 
L 476.4 10.248 
L 43.647765 10.248 
z
" style="fill: #ffffff"/>
   </g>
   <g id="line2d_1">
    <path d="M 63.318321 35.811701 
L 128.886842 46.637634 
L 194.455362 46.721411 
L 260.023882 46.562879 
L 325.592403 46.6803 
L 391.160923 46.598247 
L 456.729444 46.634827 
" clip-path="url(#p9a5946ab45)" style="fill: none; stroke: #9b9b9b; stroke-width: 1.5; stroke-linecap: square"/>
   </g>
   <g id="matplotlib.axis_1">
    <g id="xtick_1">
     <g id="line2d_2">
      <defs>
       <path id="m7e81fd2dd7" d="M 0 0 
L 0 3.5 
" style="stroke: #000000; stroke-width: 0.8"/>
      </defs>
      <g>
       <use xlink:href="#m7e81fd2dd7" x="63.318321" y="74.724" style="stroke: #000000; stroke-width: 0.8"/>
      </g>
     </g>
     <g id="text_1">
      <!-- 1/8 -->
      <g transform="translate(56.880821 87.80275) scale(0.08 -0.08)">
       <defs>
        <path id="DejaVuSans-31" d="M 794 531 
L 1825 531 
L 1825 4091 
L 703 3866 
L 703 4441 
L 1819 4666 
L 2450 4666 
L 2450 531 
L 3481 531 
L 3481 0 
L 794 0 
L 794 531 
z
" transform="scale(0.015625)"/>
        <path id="DejaVuSans-2f" d="M 1625 4666 
L 2156 4666 
L 531 -594 
L 0 -594 
L 1625 4666 
z
" transform="scale(0.015625)"/>
        <path id="DejaVuSans-38" d="M 2034 2216 
Q 1584 2216 1326 1975 
Q 1069 1734 1069 1313 
Q 1069 891 1326 650 
Q 1584 409 2034 409 
Q 2484 409 2743 651 
Q 3003 894 3003 1313 
Q 3003 1734 2745 1975 
Q 2488 2216 2034 2216 
z
M 1403 2484 
Q 997 2584 770 2862 
Q 544 3141 544 3541 
Q 544 4100 942 4425 
Q 1341 4750 2034 4750 
Q 2731 4750 3128 4425 
Q 3525 4100 3525 3541 
Q 3525 3141 3298 2862 
Q 3072 2584 2669 2484 
Q 3125 2378 3379 2068 
Q 3634 1759 3634 1313 
Q 3634 634 3220 271 
Q 2806 -91 2034 -91 
Q 1263 -91 848 271 
Q 434 634 434 1313 
Q 434 1759 690 2068 
Q 947 2378 1403 2484 
z
M 1172 3481 
Q 1172 3119 1398 2916 
Q 1625 2713 2034 2713 
Q 2441 2713 2670 2916 
Q 2900 3119 2900 3481 
Q 2900 3844 2670 4047 
Q 2441 4250 2034 4250 
Q 1625 4250 1398 4047 
Q 1172 3844 1172 3481 
z
" transform="scale(0.015625)"/>
       </defs>
       <use xlink:href="#DejaVuSans-31"/>
       <use xlink:href="#DejaVuSans-2f" x="63.623047"/>
       <use xlink:href="#DejaVuSans-38" x="97.314453"/>
      </g>
     </g>
    </g>
    <g id="xtick_2">
     <g id="line2d_3">
      <g>
       <use xlink:href="#m7e81fd2dd7" x="128.886842" y="74.724" style="stroke: #000000; stroke-width: 0.8"/>
      </g>
     </g>
     <g id="text_2">
      <!-- 1/4 -->
      <g transform="translate(122.449342 87.80275) scale(0.08 -0.08)">
       <defs>
        <path id="DejaVuSans-34" d="M 2419 4116 
L 825 1625 
L 2419 1625 
L 2419 4116 
z
M 2253 4666 
L 3047 4666 
L 3047 1625 
L 3713 1625 
L 3713 1100 
L 3047 1100 
L 3047 0 
L 2419 0 
L 2419 1100 
L 313 1100 
L 313 1709 
L 2253 4666 
z
" transform="scale(0.015625)"/>
       </defs>
       <use xlink:href="#DejaVuSans-31"/>
       <use xlink:href="#DejaVuSans-2f" x="63.623047"/>
       <use xlink:href="#DejaVuSans-34" x="97.314453"/>
      </g>
     </g>
    </g>
    <g id="xtick_3">
     <g id="line2d_4">
      <g>
       <use xlink:href="#m7e81fd2dd7" x="194.455362" y="74.724" style="stroke: #000000; stroke-width: 0.8"/>
      </g>
     </g>
     <g id="text_3">
      <!-- 1/2 -->
      <g transform="translate(188.017862 87.80275) scale(0.08 -0.08)">
       <defs>
        <path id="DejaVuSans-32" d="M 1228 531 
L 3431 531 
L 3431 0 
L 469 0 
L 469 531 
Q 828 903 1448 1529 
Q 2069 2156 2228 2338 
Q 2531 2678 2651 2914 
Q 2772 3150 2772 3378 
Q 2772 3750 2511 3984 
Q 2250 4219 1831 4219 
Q 1534 4219 1204 4116 
Q 875 4013 500 3803 
L 500 4441 
Q 881 4594 1212 4672 
Q 1544 4750 1819 4750 
Q 2544 4750 2975 4387 
Q 3406 4025 3406 3419 
Q 3406 3131 3298 2873 
Q 3191 2616 2906 2266 
Q 2828 2175 2409 1742 
Q 1991 1309 1228 531 
z
" transform="scale(0.015625)"/>
       </defs>
       <use xlink:href="#DejaVuSans-31"/>
       <use xlink:href="#DejaVuSans-2f" x="63.623047"/>
       <use xlink:href="#DejaVuSans-32" x="97.314453"/>
      </g>
     </g>
    </g>
    <g id="xtick_4">
     <g id="line2d_5">
      <g>
       <use xlink:href="#m7e81fd2dd7" x="260.023882" y="74.724" style="stroke: #000000; stroke-width: 0.8"/>
      </g>
     </g>
     <g id="text_4">
      <!-- 1 -->
      <g transform="translate(257.478882 87.80275) scale(0.08 -0.08)">
       <use xlink:href="#DejaVuSans-31"/>
      </g>
     </g>
    </g>
    <g id="xtick_5">
     <g id="line2d_6">
      <g>
       <use xlink:href="#m7e81fd2dd7" x="325.592403" y="74.724" style="stroke: #000000; stroke-width: 0.8"/>
      </g>
     </g>
     <g id="text_5">
      <!-- 2 -->
      <g transform="translate(323.047403 87.80275) scale(0.08 -0.08)">
       <use xlink:href="#DejaVuSans-32"/>
      </g>
     </g>
    </g>
    <g id="xtick_6">
     <g id="line2d_7">
      <g>
       <use xlink:href="#m7e81fd2dd7" x="391.160923" y="74.724" style="stroke: #000000; stroke-width: 0.8"/>
      </g>
     </g>
     <g id="text_6">
      <!-- 4 -->
      <g transform="translate(388.615923 87.80275) scale(0.08 -0.08)">
       <use xlink:href="#DejaVuSans-34"/>
      </g>
     </g>
    </g>
    <g id="xtick_7">
     <g id="line2d_8">
      <g>
       <use xlink:href="#m7e81fd2dd7" x="456.729444" y="74.724" style="stroke: #000000; stroke-width: 0.8"/>
      </g>
     </g>
     <g id="text_7">
      <!-- 8 -->
      <g transform="translate(454.184444 87.80275) scale(0.08 -0.08)">
       <use xlink:href="#DejaVuSans-38"/>
      </g>
     </g>
    </g>
    <g id="xtick_8">
     <g id="line2d_9">
      <defs>
       <path id="mf76721cb3f" d="M 0 0 
L 0 2 
" style="stroke: #000000; stroke-width: 0.6"/>
      </defs>
      <g>
       <use xlink:href="#mf76721cb3f" x="107.778493" y="74.724" style="stroke: #000000; stroke-width: 0.6"/>
      </g>
     </g>
    </g>
    <g id="xtick_9">
     <g id="line2d_10">
      <g>
       <use xlink:href="#mf76721cb3f" x="146.133618" y="74.724" style="stroke: #000000; stroke-width: 0.6"/>
      </g>
     </g>
    </g>
    <g id="xtick_10">
     <g id="line2d_11">
      <g>
       <use xlink:href="#mf76721cb3f" x="173.347013" y="74.724" style="stroke: #000000; stroke-width: 0.6"/>
      </g>
     </g>
    </g>
    <g id="xtick_11">
     <g id="line2d_12">
      <g>
       <use xlink:href="#mf76721cb3f" x="211.702139" y="74.724" style="stroke: #000000; stroke-width: 0.6"/>
      </g>
     </g>
    </g>
    <g id="xtick_12">
     <g id="line2d_13">
      <g>
       <use xlink:href="#mf76721cb3f" x="226.284081" y="74.724" style="stroke: #000000; stroke-width: 0.6"/>
      </g>
     </g>
    </g>
    <g id="xtick_13">
     <g id="line2d_14">
      <g>
       <use xlink:href="#mf76721cb3f" x="238.915534" y="74.724" style="stroke: #000000; stroke-width: 0.6"/>
      </g>
     </g>
    </g>
    <g id="xtick_14">
     <g id="line2d_15">
      <g>
       <use xlink:href="#mf76721cb3f" x="250.057265" y="74.724" style="stroke: #000000; stroke-width: 0.6"/>
      </g>
     </g>
    </g>
    <g id="xtick_15">
     <g id="line2d_16">
      <g>
       <use xlink:href="#mf76721cb3f" x="363.947529" y="74.724" style="stroke: #000000; stroke-width: 0.6"/>
      </g>
     </g>
    </g>
    <g id="xtick_16">
     <g id="line2d_17">
      <g>
       <use xlink:href="#mf76721cb3f" x="412.269272" y="74.724" style="stroke: #000000; stroke-width: 0.6"/>
      </g>
     </g>
    </g>
    <g id="xtick_17">
     <g id="line2d_18">
      <g>
       <use xlink:href="#mf76721cb3f" x="429.516049" y="74.724" style="stroke: #000000; stroke-width: 0.6"/>
      </g>
     </g>
    </g>
    <g id="xtick_18">
     <g id="line2d_19">
      <g>
       <use xlink:href="#mf76721cb3f" x="444.097991" y="74.724" style="stroke: #000000; stroke-width: 0.6"/>
      </g>
     </g>
    </g>
    <g id="xtick_19">
     <g id="line2d_20">
      <g>
       <use xlink:href="#mf76721cb3f" x="467.871175" y="74.724" style="stroke: #000000; stroke-width: 0.6"/>
      </g>
     </g>
    </g>
    <g id="text_8">
     <!-- Sampling factor -->
     <g transform="translate(228.310757 99.54525) scale(0.08 -0.08)">
      <defs>
       <path id="DejaVuSans-53" d="M 3425 4513 
L 3425 3897 
Q 3066 4069 2747 4153 
Q 2428 4238 2131 4238 
Q 1616 4238 1336 4038 
Q 1056 3838 1056 3469 
Q 1056 3159 1242 3001 
Q 1428 2844 1947 2747 
L 2328 2669 
Q 3034 2534 3370 2195 
Q 3706 1856 3706 1288 
Q 3706 609 3251 259 
Q 2797 -91 1919 -91 
Q 1588 -91 1214 -16 
Q 841 59 441 206 
L 441 856 
Q 825 641 1194 531 
Q 1563 422 1919 422 
Q 2459 422 2753 634 
Q 3047 847 3047 1241 
Q 3047 1584 2836 1778 
Q 2625 1972 2144 2069 
L 1759 2144 
Q 1053 2284 737 2584 
Q 422 2884 422 3419 
Q 422 4038 858 4394 
Q 1294 4750 2059 4750 
Q 2388 4750 2728 4690 
Q 3069 4631 3425 4513 
z
" transform="scale(0.015625)"/>
       <path id="DejaVuSans-61" d="M 2194 1759 
Q 1497 1759 1228 1600 
Q 959 1441 959 1056 
Q 959 750 1161 570 
Q 1363 391 1709 391 
Q 2188 391 2477 730 
Q 2766 1069 2766 1631 
L 2766 1759 
L 2194 1759 
z
M 3341 1997 
L 3341 0 
L 2766 0 
L 2766 531 
Q 2569 213 2275 61 
Q 1981 -91 1556 -91 
Q 1019 -91 701 211 
Q 384 513 384 1019 
Q 384 1609 779 1909 
Q 1175 2209 1959 2209 
L 2766 2209 
L 2766 2266 
Q 2766 2663 2505 2880 
Q 2244 3097 1772 3097 
Q 1472 3097 1187 3025 
Q 903 2953 641 2809 
L 641 3341 
Q 956 3463 1253 3523 
Q 1550 3584 1831 3584 
Q 2591 3584 2966 3190 
Q 3341 2797 3341 1997 
z
" transform="scale(0.015625)"/>
       <path id="DejaVuSans-6d" d="M 3328 2828 
Q 3544 3216 3844 3400 
Q 4144 3584 4550 3584 
Q 5097 3584 5394 3201 
Q 5691 2819 5691 2113 
L 5691 0 
L 5113 0 
L 5113 2094 
Q 5113 2597 4934 2840 
Q 4756 3084 4391 3084 
Q 3944 3084 3684 2787 
Q 3425 2491 3425 1978 
L 3425 0 
L 2847 0 
L 2847 2094 
Q 2847 2600 2669 2842 
Q 2491 3084 2119 3084 
Q 1678 3084 1418 2786 
Q 1159 2488 1159 1978 
L 1159 0 
L 581 0 
L 581 3500 
L 1159 3500 
L 1159 2956 
Q 1356 3278 1631 3431 
Q 1906 3584 2284 3584 
Q 2666 3584 2933 3390 
Q 3200 3197 3328 2828 
z
" transform="scale(0.015625)"/>
       <path id="DejaVuSans-70" d="M 1159 525 
L 1159 -1331 
L 581 -1331 
L 581 3500 
L 1159 3500 
L 1159 2969 
Q 1341 3281 1617 3432 
Q 1894 3584 2278 3584 
Q 2916 3584 3314 3078 
Q 3713 2572 3713 1747 
Q 3713 922 3314 415 
Q 2916 -91 2278 -91 
Q 1894 -91 1617 61 
Q 1341 213 1159 525 
z
M 3116 1747 
Q 3116 2381 2855 2742 
Q 2594 3103 2138 3103 
Q 1681 3103 1420 2742 
Q 1159 2381 1159 1747 
Q 1159 1113 1420 752 
Q 1681 391 2138 391 
Q 2594 391 2855 752 
Q 3116 1113 3116 1747 
z
" transform="scale(0.015625)"/>
       <path id="DejaVuSans-6c" d="M 603 4863 
L 1178 4863 
L 1178 0 
L 603 0 
L 603 4863 
z
" transform="scale(0.015625)"/>
       <path id="DejaVuSans-69" d="M 603 3500 
L 1178 3500 
L 1178 0 
L 603 0 
L 603 3500 
z
M 603 4863 
L 1178 4863 
L 1178 4134 
L 603 4134 
L 603 4863 
z
" transform="scale(0.015625)"/>
       <path id="DejaVuSans-6e" d="M 3513 2113 
L 3513 0 
L 2938 0 
L 2938 2094 
Q 2938 2591 2744 2837 
Q 2550 3084 2163 3084 
Q 1697 3084 1428 2787 
Q 1159 2491 1159 1978 
L 1159 0 
L 581 0 
L 581 3500 
L 1159 3500 
L 1159 2956 
Q 1366 3272 1645 3428 
Q 1925 3584 2291 3584 
Q 2894 3584 3203 3211 
Q 3513 2838 3513 2113 
z
" transform="scale(0.015625)"/>
       <path id="DejaVuSans-67" d="M 2906 1791 
Q 2906 2416 2648 2759 
Q 2391 3103 1925 3103 
Q 1463 3103 1205 2759 
Q 947 2416 947 1791 
Q 947 1169 1205 825 
Q 1463 481 1925 481 
Q 2391 481 2648 825 
Q 2906 1169 2906 1791 
z
M 3481 434 
Q 3481 -459 3084 -895 
Q 2688 -1331 1869 -1331 
Q 1566 -1331 1297 -1286 
Q 1028 -1241 775 -1147 
L 775 -588 
Q 1028 -725 1275 -790 
Q 1522 -856 1778 -856 
Q 2344 -856 2625 -561 
Q 2906 -266 2906 331 
L 2906 616 
Q 2728 306 2450 153 
Q 2172 0 1784 0 
Q 1141 0 747 490 
Q 353 981 353 1791 
Q 353 2603 747 3093 
Q 1141 3584 1784 3584 
Q 2172 3584 2450 3431 
Q 2728 3278 2906 2969 
L 2906 3500 
L 3481 3500 
L 3481 434 
z
" transform="scale(0.015625)"/>
       <path id="DejaVuSans-20" transform="scale(0.015625)"/>
       <path id="DejaVuSans-66" d="M 2375 4863 
L 2375 4384 
L 1825 4384 
Q 1516 4384 1395 4259 
Q 1275 4134 1275 3809 
L 1275 3500 
L 2222 3500 
L 2222 3053 
L 1275 3053 
L 1275 0 
L 697 0 
L 697 3053 
L 147 3053 
L 147 3500 
L 697 3500 
L 697 3744 
Q 697 4328 969 4595 
Q 1241 4863 1831 4863 
L 2375 4863 
z
" transform="scale(0.015625)"/>
       <path id="DejaVuSans-63" d="M 3122 3366 
L 3122 2828 
Q 2878 2963 2633 3030 
Q 2388 3097 2138 3097 
Q 1578 3097 1268 2742 
Q 959 2388 959 1747 
Q 959 1106 1268 751 
Q 1578 397 2138 397 
Q 2388 397 2633 464 
Q 2878 531 3122 666 
L 3122 134 
Q 2881 22 2623 -34 
Q 2366 -91 2075 -91 
Q 1284 -91 818 406 
Q 353 903 353 1747 
Q 353 2603 823 3093 
Q 1294 3584 2113 3584 
Q 2378 3584 2631 3529 
Q 2884 3475 3122 3366 
z
" transform="scale(0.015625)"/>
       <path id="DejaVuSans-74" d="M 1172 4494 
L 1172 3500 
L 2356 3500 
L 2356 3053 
L 1172 3053 
L 1172 1153 
Q 1172 725 1289 603 
Q 1406 481 1766 481 
L 2356 481 
L 2356 0 
L 1766 0 
Q 1100 0 847 248 
Q 594 497 594 1153 
L 594 3053 
L 172 3053 
L 172 3500 
L 594 3500 
L 594 4494 
L 1172 4494 
z
" transform="scale(0.015625)"/>
       <path id="DejaVuSans-6f" d="M 1959 3097 
Q 1497 3097 1228 2736 
Q 959 2375 959 1747 
Q 959 1119 1226 758 
Q 1494 397 1959 397 
Q 2419 397 2687 759 
Q 2956 1122 2956 1747 
Q 2956 2369 2687 2733 
Q 2419 3097 1959 3097 
z
M 1959 3584 
Q 2709 3584 3137 3096 
Q 3566 2609 3566 1747 
Q 3566 888 3137 398 
Q 2709 -91 1959 -91 
Q 1206 -91 779 398 
Q 353 888 353 1747 
Q 353 2609 779 3096 
Q 1206 3584 1959 3584 
z
" transform="scale(0.015625)"/>
       <path id="DejaVuSans-72" d="M 2631 2963 
Q 2534 3019 2420 3045 
Q 2306 3072 2169 3072 
Q 1681 3072 1420 2755 
Q 1159 2438 1159 1844 
L 1159 0 
L 581 0 
L 581 3500 
L 1159 3500 
L 1159 2956 
Q 1341 3275 1631 3429 
Q 1922 3584 2338 3584 
Q 2397 3584 2469 3576 
Q 2541 3569 2628 3553 
L 2631 2963 
z
" transform="scale(0.015625)"/>
      </defs>
      <use xlink:href="#DejaVuSans-53"/>
      <use xlink:href="#DejaVuSans-61" x="63.476562"/>
      <use xlink:href="#DejaVuSans-6d" x="124.755859"/>
      <use xlink:href="#DejaVuSans-70" x="222.167969"/>
      <use xlink:href="#DejaVuSans-6c" x="285.644531"/>
      <use xlink:href="#DejaVuSans-69" x="313.427734"/>
      <use xlink:href="#DejaVuSans-6e" x="341.210938"/>
      <use xlink:href="#DejaVuSans-67" x="404.589844"/>
      <use xlink:href="#DejaVuSans-20" x="468.066406"/>
      <use xlink:href="#DejaVuSans-66" x="499.853516"/>
      <use xlink:href="#DejaVuSans-61" x="535.058594"/>
      <use xlink:href="#DejaVuSans-63" x="596.337891"/>
      <use xlink:href="#DejaVuSans-74" x="651.318359"/>
      <use xlink:href="#DejaVuSans-6f" x="690.527344"/>
      <use xlink:href="#DejaVuSans-72" x="751.708984"/>
     </g>
    </g>
   </g>
   <g id="matplotlib.axis_2">
    <g id="ytick_1">
     <g id="line2d_21">
      <defs>
       <path id="m7855dd287c" d="M 0 0 
L -3.5 0 
" style="stroke: #000000; stroke-width: 0.8"/>
      </defs>
      <g>
       <use xlink:href="#m7855dd287c" x="43.647765" y="74.724" style="stroke: #000000; stroke-width: 0.8"/>
      </g>
     </g>
     <g id="text_9">
      <!-- $\mathdefault{10^{-2}}$ -->
      <g transform="translate(17.847765 77.763375) scale(0.08 -0.08)">
       <defs>
        <path id="DejaVuSans-30" d="M 2034 4250 
Q 1547 4250 1301 3770 
Q 1056 3291 1056 2328 
Q 1056 1369 1301 889 
Q 1547 409 2034 409 
Q 2525 409 2770 889 
Q 3016 1369 3016 2328 
Q 3016 3291 2770 3770 
Q 2525 4250 2034 4250 
z
M 2034 4750 
Q 2819 4750 3233 4129 
Q 3647 3509 3647 2328 
Q 3647 1150 3233 529 
Q 2819 -91 2034 -91 
Q 1250 -91 836 529 
Q 422 1150 422 2328 
Q 422 3509 836 4129 
Q 1250 4750 2034 4750 
z
" transform="scale(0.015625)"/>
        <path id="DejaVuSans-2212" d="M 678 2272 
L 4684 2272 
L 4684 1741 
L 678 1741 
L 678 2272 
z
" transform="scale(0.015625)"/>
       </defs>
       <use xlink:href="#DejaVuSans-31" transform="translate(0 0.765625)"/>
       <use xlink:href="#DejaVuSans-30" transform="translate(63.623047 0.765625)"/>
       <use xlink:href="#DejaVuSans-2212" transform="translate(128.203125 39.046875) scale(0.7)"/>
       <use xlink:href="#DejaVuSans-32" transform="translate(186.855469 39.046875) scale(0.7)"/>
      </g>
     </g>
    </g>
    <g id="ytick_2">
     <g id="line2d_22">
      <g>
       <use xlink:href="#m7855dd287c" x="43.647765" y="42.486" style="stroke: #000000; stroke-width: 0.8"/>
      </g>
     </g>
     <g id="text_10">
      <!-- $\mathdefault{10^{-1}}$ -->
      <g transform="translate(17.847765 45.525375) scale(0.08 -0.08)">
       <use xlink:href="#DejaVuSans-31" transform="translate(0 0.684375)"/>
       <use xlink:href="#DejaVuSans-30" transform="translate(63.623047 0.684375)"/>
       <use xlink:href="#DejaVuSans-2212" transform="translate(128.203125 38.965625) scale(0.7)"/>
       <use xlink:href="#DejaVuSans-31" transform="translate(186.855469 38.965625) scale(0.7)"/>
      </g>
     </g>
    </g>
    <g id="ytick_3">
     <g id="line2d_23">
      <g>
       <use xlink:href="#m7855dd287c" x="43.647765" y="10.248" style="stroke: #000000; stroke-width: 0.8"/>
      </g>
     </g>
     <g id="text_11">
      <!-- $\mathdefault{10^{0}}$ -->
      <g transform="translate(22.567765 13.287375) scale(0.08 -0.08)">
       <use xlink:href="#DejaVuSans-31" transform="translate(0 0.765625)"/>
       <use xlink:href="#DejaVuSans-30" transform="translate(63.623047 0.765625)"/>
       <use xlink:href="#DejaVuSans-30" transform="translate(128.203125 39.046875) scale(0.7)"/>
      </g>
     </g>
    </g>
    <g id="ytick_4">
     <g id="line2d_24">
      <defs>
       <path id="m3438e81078" d="M 0 0 
L -2 0 
" style="stroke: #000000; stroke-width: 0.6"/>
      </defs>
      <g>
       <use xlink:href="#m3438e81078" x="43.647765" y="65.019395" style="stroke: #000000; stroke-width: 0.6"/>
      </g>
     </g>
    </g>
    <g id="ytick_5">
     <g id="line2d_25">
      <g>
       <use xlink:href="#m3438e81078" x="43.647765" y="59.342565" style="stroke: #000000; stroke-width: 0.6"/>
      </g>
     </g>
    </g>
    <g id="ytick_6">
     <g id="line2d_26">
      <g>
       <use xlink:href="#m3438e81078" x="43.647765" y="55.31479" style="stroke: #000000; stroke-width: 0.6"/>
      </g>
     </g>
    </g>
    <g id="ytick_7">
     <g id="line2d_27">
      <g>
       <use xlink:href="#m3438e81078" x="43.647765" y="52.190605" style="stroke: #000000; stroke-width: 0.6"/>
      </g>
     </g>
    </g>
    <g id="ytick_8">
     <g id="line2d_28">
      <g>
       <use xlink:href="#m3438e81078" x="43.647765" y="49.63796" style="stroke: #000000; stroke-width: 0.6"/>
      </g>
     </g>
    </g>
    <g id="ytick_9">
     <g id="line2d_29">
      <g>
       <use xlink:href="#m3438e81078" x="43.647765" y="47.479729" style="stroke: #000000; stroke-width: 0.6"/>
      </g>
     </g>
    </g>
    <g id="ytick_10">
     <g id="line2d_30">
      <g>
       <use xlink:href="#m3438e81078" x="43.647765" y="45.610185" style="stroke: #000000; stroke-width: 0.6"/>
      </g>
     </g>
    </g>
    <g id="ytick_11">
     <g id="line2d_31">
      <g>
       <use xlink:href="#m3438e81078" x="43.647765" y="43.96113" style="stroke: #000000; stroke-width: 0.6"/>
      </g>
     </g>
    </g>
    <g id="ytick_12">
     <g id="line2d_32">
      <g>
       <use xlink:href="#m3438e81078" x="43.647765" y="32.781395" style="stroke: #000000; stroke-width: 0.6"/>
      </g>
     </g>
    </g>
    <g id="ytick_13">
     <g id="line2d_33">
      <g>
       <use xlink:href="#m3438e81078" x="43.647765" y="27.104565" style="stroke: #000000; stroke-width: 0.6"/>
      </g>
     </g>
    </g>
    <g id="ytick_14">
     <g id="line2d_34">
      <g>
       <use xlink:href="#m3438e81078" x="43.647765" y="23.07679" style="stroke: #000000; stroke-width: 0.6"/>
      </g>
     </g>
    </g>
    <g id="ytick_15">
     <g id="line2d_35">
      <g>
       <use xlink:href="#m3438e81078" x="43.647765" y="19.952605" style="stroke: #000000; stroke-width: 0.6"/>
      </g>
     </g>
    </g>
    <g id="ytick_16">
     <g id="line2d_36">
      <g>
       <use xlink:href="#m3438e81078" x="43.647765" y="17.39996" style="stroke: #000000; stroke-width: 0.6"/>
      </g>
     </g>
    </g>
    <g id="ytick_17">
     <g id="line2d_37">
      <g>
       <use xlink:href="#m3438e81078" x="43.647765" y="15.241729" style="stroke: #000000; stroke-width: 0.6"/>
      </g>
     </g>
    </g>
    <g id="ytick_18">
     <g id="line2d_38">
      <g>
       <use xlink:href="#m3438e81078" x="43.647765" y="13.372185" style="stroke: #000000; stroke-width: 0.6"/>
      </g>
     </g>
    </g>
    <g id="ytick_19">
     <g id="line2d_39">
      <g>
       <use xlink:href="#m3438e81078" x="43.647765" y="11.72313" style="stroke: #000000; stroke-width: 0.6"/>
      </g>
     </g>
    </g>
    <g id="text_12">
     <!-- Relative error -->
     <g transform="translate(12.184015 69.570375) rotate(-90) scale(0.08 -0.08)">
      <defs>
       <path id="DejaVuSans-52" d="M 2841 2188 
Q 3044 2119 3236 1894 
Q 3428 1669 3622 1275 
L 4263 0 
L 3584 0 
L 2988 1197 
Q 2756 1666 2539 1819 
Q 2322 1972 1947 1972 
L 1259 1972 
L 1259 0 
L 628 0 
L 628 4666 
L 2053 4666 
Q 2853 4666 3247 4331 
Q 3641 3997 3641 3322 
Q 3641 2881 3436 2590 
Q 3231 2300 2841 2188 
z
M 1259 4147 
L 1259 2491 
L 2053 2491 
Q 2509 2491 2742 2702 
Q 2975 2913 2975 3322 
Q 2975 3731 2742 3939 
Q 2509 4147 2053 4147 
L 1259 4147 
z
" transform="scale(0.015625)"/>
       <path id="DejaVuSans-65" d="M 3597 1894 
L 3597 1613 
L 953 1613 
Q 991 1019 1311 708 
Q 1631 397 2203 397 
Q 2534 397 2845 478 
Q 3156 559 3463 722 
L 3463 178 
Q 3153 47 2828 -22 
Q 2503 -91 2169 -91 
Q 1331 -91 842 396 
Q 353 884 353 1716 
Q 353 2575 817 3079 
Q 1281 3584 2069 3584 
Q 2775 3584 3186 3129 
Q 3597 2675 3597 1894 
z
M 3022 2063 
Q 3016 2534 2758 2815 
Q 2500 3097 2075 3097 
Q 1594 3097 1305 2825 
Q 1016 2553 972 2059 
L 3022 2063 
z
" transform="scale(0.015625)"/>
       <path id="DejaVuSans-76" d="M 191 3500 
L 800 3500 
L 1894 563 
L 2988 3500 
L 3597 3500 
L 2284 0 
L 1503 0 
L 191 3500 
z
" transform="scale(0.015625)"/>
      </defs>
      <use xlink:href="#DejaVuSans-52"/>
      <use xlink:href="#DejaVuSans-65" x="64.982422"/>
      <use xlink:href="#DejaVuSans-6c" x="126.505859"/>
      <use xlink:href="#DejaVuSans-61" x="154.289062"/>
      <use xlink:href="#DejaVuSans-74" x="215.568359"/>
      <use xlink:href="#DejaVuSans-69" x="254.777344"/>
      <use xlink:href="#DejaVuSans-76" x="282.560547"/>
      <use xlink:href="#DejaVuSans-65" x="341.740234"/>
      <use xlink:href="#DejaVuSans-20" x="403.263672"/>
      <use xlink:href="#DejaVuSans-65" x="435.050781"/>
      <use xlink:href="#DejaVuSans-72" x="496.574219"/>
      <use xlink:href="#DejaVuSans-72" x="535.9375"/>
      <use xlink:href="#DejaVuSans-6f" x="574.800781"/>
      <use xlink:href="#DejaVuSans-72" x="635.982422"/>
     </g>
    </g>
   </g>
   <g id="PathCollection_1">
    <defs>
     <path id="meda26e9ddb" d="M 0 1.936492 
C 0.513564 1.936492 1.006162 1.732451 1.369306 1.369306 
C 1.732451 1.006162 1.936492 0.513564 1.936492 0 
C 1.936492 -0.513564 1.732451 -1.006162 1.369306 -1.369306 
C 1.006162 -1.732451 0.513564 -1.936492 0 -1.936492 
C -0.513564 -1.936492 -1.006162 -1.732451 -1.369306 -1.369306 
C -1.732451 -1.006162 -1.936492 -0.513564 -1.936492 0 
C -1.936492 0.513564 -1.732451 1.006162 -1.369306 1.369306 
C -1.006162 1.732451 -0.513564 1.936492 0 1.936492 
z
" style="stroke: #7c7c7c"/>
    </defs>
    <g clip-path="url(#p9a5946ab45)">
     <use xlink:href="#meda26e9ddb" x="63.318321" y="35.811701" style="fill: #9b9b9b; stroke: #7c7c7c"/>
     <use xlink:href="#meda26e9ddb" x="128.886842" y="46.637634" style="fill: #9b9b9b; stroke: #7c7c7c"/>
     <use xlink:href="#meda26e9ddb" x="194.455362" y="46.721411" style="fill: #9b9b9b; stroke: #7c7c7c"/>
     <use xlink:href="#meda26e9ddb" x="260.023882" y="46.562879" style="fill: #9b9b9b; stroke: #7c7c7c"/>
     <use xlink:href="#meda26e9ddb" x="325.592403" y="46.6803" style="fill: #9b9b9b; stroke: #7c7c7c"/>
     <use xlink:href="#meda26e9ddb" x="391.160923" y="46.598247" style="fill: #9b9b9b; stroke: #7c7c7c"/>
     <use xlink:href="#meda26e9ddb" x="456.729444" y="46.634827" style="fill: #9b9b9b; stroke: #7c7c7c"/>
    </g>
   </g>
   <g id="patch_3">
    <path d="M 43.647765 74.724 
L 43.647765 10.248 
" style="fill: none; stroke: #000000; stroke-width: 0.8; stroke-linejoin: miter; stroke-linecap: square"/>
   </g>
   <g id="patch_4">
    <path d="M 476.4 74.724 
L 476.4 10.248 
" style="fill: none; stroke: #000000; stroke-width: 0.8; stroke-linejoin: miter; stroke-linecap: square"/>
   </g>
   <g id="patch_5">
    <path d="M 43.647765 74.724 
L 476.4 74.724 
" style="fill: none; stroke: #000000; stroke-width: 0.8; stroke-linejoin: miter; stroke-linecap: square"/>
   </g>
   <g id="patch_6">
    <path d="M 43.647765 10.248 
L 476.4 10.248 
" style="fill: none; stroke: #000000; stroke-width: 0.8; stroke-linejoin: miter; stroke-linecap: square"/>
   </g>
  </g>
  <g id="axes_2">
   <g id="patch_7">
    <path d="M 43.647765 184.6 
L 228.705625 184.6 
L 228.705625 120.124 
L 43.647765 120.124 
z
" style="fill: #ffffff"/>
   </g>
   <g id="line2d_40">
    <path d="M 115.140821 184.6 
L 115.140821 120.124 
" clip-path="url(#p3f116e2ce6)" style="fill: none; stroke: #808080; stroke-opacity: 0.3; stroke-linecap: square"/>
   </g>
   <g id="line2d_41">
    <path d="M 167.717362 184.6 
L 167.717362 120.124 
" clip-path="url(#p3f116e2ce6)" style="fill: none; stroke: #808080; stroke-opacity: 0.3; stroke-linecap: square"/>
   </g>
   <g id="matplotlib.axis_3">
    <g id="xtick_20">
     <g id="line2d_42">
      <g>
       <use xlink:href="#m7e81fd2dd7" x="52.048971" y="184.6" style="stroke: #000000; stroke-width: 0.8"/>
      </g>
     </g>
     <g id="text_13">
      <!-- 0 -->
      <g transform="translate(49.503971 197.67875) scale(0.08 -0.08)">
       <use xlink:href="#DejaVuSans-30"/>
      </g>
     </g>
    </g>
    <g id="xtick_21">
     <g id="line2d_43">
      <g>
       <use xlink:href="#m7e81fd2dd7" x="104.625512" y="184.6" style="stroke: #000000; stroke-width: 0.8"/>
      </g>
     </g>
     <g id="text_14">
      <!-- 5000 -->
      <g transform="translate(94.445512 197.67875) scale(0.08 -0.08)">
       <defs>
        <path id="DejaVuSans-35" d="M 691 4666 
L 3169 4666 
L 3169 4134 
L 1269 4134 
L 1269 2991 
Q 1406 3038 1543 3061 
Q 1681 3084 1819 3084 
Q 2600 3084 3056 2656 
Q 3513 2228 3513 1497 
Q 3513 744 3044 326 
Q 2575 -91 1722 -91 
Q 1428 -91 1123 -41 
Q 819 9 494 109 
L 494 744 
Q 775 591 1075 516 
Q 1375 441 1709 441 
Q 2250 441 2565 725 
Q 2881 1009 2881 1497 
Q 2881 1984 2565 2268 
Q 2250 2553 1709 2553 
Q 1456 2553 1204 2497 
Q 953 2441 691 2322 
L 691 4666 
z
" transform="scale(0.015625)"/>
       </defs>
       <use xlink:href="#DejaVuSans-35"/>
       <use xlink:href="#DejaVuSans-30" x="63.623047"/>
       <use xlink:href="#DejaVuSans-30" x="127.246094"/>
       <use xlink:href="#DejaVuSans-30" x="190.869141"/>
      </g>
     </g>
    </g>
    <g id="xtick_22">
     <g id="line2d_44">
      <g>
       <use xlink:href="#m7e81fd2dd7" x="157.202054" y="184.6" style="stroke: #000000; stroke-width: 0.8"/>
      </g>
     </g>
     <g id="text_15">
      <!-- 10000 -->
      <g transform="translate(144.477054 197.67875) scale(0.08 -0.08)">
       <use xlink:href="#DejaVuSans-31"/>
       <use xlink:href="#DejaVuSans-30" x="63.623047"/>
       <use xlink:href="#DejaVuSans-30" x="127.246094"/>
       <use xlink:href="#DejaVuSans-30" x="190.869141"/>
       <use xlink:href="#DejaVuSans-30" x="254.492188"/>
      </g>
     </g>
    </g>
    <g id="xtick_23">
     <g id="line2d_45">
      <g>
       <use xlink:href="#m7e81fd2dd7" x="209.778596" y="184.6" style="stroke: #000000; stroke-width: 0.8"/>
      </g>
     </g>
     <g id="text_16">
      <!-- 15000 -->
      <g transform="translate(197.053596 197.67875) scale(0.08 -0.08)">
       <use xlink:href="#DejaVuSans-31"/>
       <use xlink:href="#DejaVuSans-35" x="63.623047"/>
       <use xlink:href="#DejaVuSans-30" x="127.246094"/>
       <use xlink:href="#DejaVuSans-30" x="190.869141"/>
       <use xlink:href="#DejaVuSans-30" x="254.492188"/>
      </g>
     </g>
    </g>
    <g id="text_17">
     <!-- Iteration -->
     <g transform="translate(119.20982 209.42125) scale(0.08 -0.08)">
      <defs>
       <path id="DejaVuSans-49" d="M 628 4666 
L 1259 4666 
L 1259 0 
L 628 0 
L 628 4666 
z
" transform="scale(0.015625)"/>
      </defs>
      <use xlink:href="#DejaVuSans-49"/>
      <use xlink:href="#DejaVuSans-74" x="29.492188"/>
      <use xlink:href="#DejaVuSans-65" x="68.701172"/>
      <use xlink:href="#DejaVuSans-72" x="130.224609"/>
      <use xlink:href="#DejaVuSans-61" x="171.337891"/>
      <use xlink:href="#DejaVuSans-74" x="232.617188"/>
      <use xlink:href="#DejaVuSans-69" x="271.826172"/>
      <use xlink:href="#DejaVuSans-6f" x="299.609375"/>
      <use xlink:href="#DejaVuSans-6e" x="360.791016"/>
     </g>
    </g>
   </g>
   <g id="matplotlib.axis_4">
    <g id="ytick_20">
     <g id="line2d_46">
      <g>
       <use xlink:href="#m7855dd287c" x="43.647765" y="173.801122" style="stroke: #000000; stroke-width: 0.8"/>
      </g>
     </g>
     <g id="text_18">
      <!-- $\mathdefault{10^{-3}}$ -->
      <g transform="translate(17.847765 176.840497) scale(0.08 -0.08)">
       <defs>
        <path id="DejaVuSans-33" d="M 2597 2516 
Q 3050 2419 3304 2112 
Q 3559 1806 3559 1356 
Q 3559 666 3084 287 
Q 2609 -91 1734 -91 
Q 1441 -91 1130 -33 
Q 819 25 488 141 
L 488 750 
Q 750 597 1062 519 
Q 1375 441 1716 441 
Q 2309 441 2620 675 
Q 2931 909 2931 1356 
Q 2931 1769 2642 2001 
Q 2353 2234 1838 2234 
L 1294 2234 
L 1294 2753 
L 1863 2753 
Q 2328 2753 2575 2939 
Q 2822 3125 2822 3475 
Q 2822 3834 2567 4026 
Q 2313 4219 1838 4219 
Q 1578 4219 1281 4162 
Q 984 4106 628 3988 
L 628 4550 
Q 988 4650 1302 4700 
Q 1616 4750 1894 4750 
Q 2613 4750 3031 4423 
Q 3450 4097 3450 3541 
Q 3450 3153 3228 2886 
Q 3006 2619 2597 2516 
z
" transform="scale(0.015625)"/>
       </defs>
       <use xlink:href="#DejaVuSans-31" transform="translate(0 0.765625)"/>
       <use xlink:href="#DejaVuSans-30" transform="translate(63.623047 0.765625)"/>
       <use xlink:href="#DejaVuSans-2212" transform="translate(128.203125 39.046875) scale(0.7)"/>
       <use xlink:href="#DejaVuSans-33" transform="translate(186.855469 39.046875) scale(0.7)"/>
      </g>
     </g>
    </g>
    <g id="ytick_21">
     <g id="line2d_47">
      <g>
       <use xlink:href="#m7855dd287c" x="43.647765" y="152.891613" style="stroke: #000000; stroke-width: 0.8"/>
      </g>
     </g>
     <g id="text_19">
      <!-- $\mathdefault{10^{-1}}$ -->
      <g transform="translate(17.847765 155.930988) scale(0.08 -0.08)">
       <use xlink:href="#DejaVuSans-31" transform="translate(0 0.684375)"/>
       <use xlink:href="#DejaVuSans-30" transform="translate(63.623047 0.684375)"/>
       <use xlink:href="#DejaVuSans-2212" transform="translate(128.203125 38.965625) scale(0.7)"/>
       <use xlink:href="#DejaVuSans-31" transform="translate(186.855469 38.965625) scale(0.7)"/>
      </g>
     </g>
    </g>
    <g id="ytick_22">
     <g id="line2d_48">
      <g>
       <use xlink:href="#m7855dd287c" x="43.647765" y="131.982104" style="stroke: #000000; stroke-width: 0.8"/>
      </g>
     </g>
     <g id="text_20">
      <!-- $\mathdefault{10^{1}}$ -->
      <g transform="translate(22.567765 135.021479) scale(0.08 -0.08)">
       <use xlink:href="#DejaVuSans-31" transform="translate(0 0.684375)"/>
       <use xlink:href="#DejaVuSans-30" transform="translate(63.623047 0.684375)"/>
       <use xlink:href="#DejaVuSans-31" transform="translate(128.203125 38.965625) scale(0.7)"/>
      </g>
     </g>
    </g>
    <g id="text_21">
     <!-- Loss -->
     <g transform="translate(12.184015 161.13575) rotate(-90) scale(0.08 -0.08)">
      <defs>
       <path id="DejaVuSans-4c" d="M 628 4666 
L 1259 4666 
L 1259 531 
L 3531 531 
L 3531 0 
L 628 0 
L 628 4666 
z
" transform="scale(0.015625)"/>
       <path id="DejaVuSans-73" d="M 2834 3397 
L 2834 2853 
Q 2591 2978 2328 3040 
Q 2066 3103 1784 3103 
Q 1356 3103 1142 2972 
Q 928 2841 928 2578 
Q 928 2378 1081 2264 
Q 1234 2150 1697 2047 
L 1894 2003 
Q 2506 1872 2764 1633 
Q 3022 1394 3022 966 
Q 3022 478 2636 193 
Q 2250 -91 1575 -91 
Q 1294 -91 989 -36 
Q 684 19 347 128 
L 347 722 
Q 666 556 975 473 
Q 1284 391 1588 391 
Q 1994 391 2212 530 
Q 2431 669 2431 922 
Q 2431 1156 2273 1281 
Q 2116 1406 1581 1522 
L 1381 1569 
Q 847 1681 609 1914 
Q 372 2147 372 2553 
Q 372 3047 722 3315 
Q 1072 3584 1716 3584 
Q 2034 3584 2315 3537 
Q 2597 3491 2834 3397 
z
" transform="scale(0.015625)"/>
      </defs>
      <use xlink:href="#DejaVuSans-4c"/>
      <use xlink:href="#DejaVuSans-6f" x="53.962891"/>
      <use xlink:href="#DejaVuSans-73" x="115.144531"/>
      <use xlink:href="#DejaVuSans-73" x="167.244141"/>
     </g>
    </g>
   </g>
   <g id="line2d_49">
    <path d="M 52.059486 123.054727 
L 53.100501 137.686338 
L 54.152032 140.19368 
L 55.203563 142.011944 
L 56.255094 141.989557 
L 57.306625 143.994401 
L 60.461217 145.51527 
L 61.512748 145.175085 
L 62.564279 146.277095 
L 63.61581 147.883742 
L 68.873464 153.226622 
L 72.028056 156.807965 
L 73.079587 157.692523 
L 75.182649 159.131997 
L 77.285711 160.754173 
L 79.388772 162.177095 
L 81.491834 163.431908 
L 82.543365 164.211914 
L 84.646426 165.366698 
L 92.007142 168.71691 
L 95.161735 169.684913 
L 99.367858 170.7776 
L 104.625512 171.987669 
L 115.140821 173.866274 
L 121.450006 174.430056 
L 126.70766 175.095115 
L 133.016845 175.957735 
L 145.635215 177.301032 
L 149.841338 177.687137 
L 161.408177 178.540498 
L 170.871955 179.104228 
L 186.644917 179.812781 
L 205.572472 180.946689 
L 216.087781 181.484245 
L 220.293904 181.669273 
L 220.293904 181.669273 
" clip-path="url(#p3f116e2ce6)" style="fill: none; stroke: #00a2ff; stroke-opacity: 0.6; stroke-width: 2; stroke-linecap: square"/>
   </g>
   <g id="line2d_50">
    <path d="M 52.059486 123.054727 
L 53.100501 137.686338 
L 54.152032 140.19368 
L 55.203563 142.011944 
L 56.255094 141.989557 
L 57.306625 143.994401 
L 60.461217 145.51527 
L 61.512748 145.175085 
L 62.564279 146.277095 
L 63.61581 147.883742 
L 68.873464 153.226622 
L 72.028056 156.807965 
L 73.079587 157.692523 
L 75.182649 159.131997 
L 77.285711 160.754173 
L 79.388772 162.177095 
L 81.491834 163.431908 
L 82.543365 164.211914 
L 84.646426 165.366698 
L 92.007142 168.71691 
L 95.161735 169.684913 
L 99.367858 170.7776 
L 104.625512 171.987669 
L 115.140821 173.866274 
L 116.192351 168.445858 
L 117.243882 168.948503 
L 119.346944 169.613323 
L 124.604598 170.894439 
L 130.913783 172.291041 
L 136.171437 173.300786 
L 150.892869 175.385651 
L 156.150523 175.971335 
L 167.717362 177.045602 
L 168.768893 176.269007 
L 170.871955 176.802588 
L 174.026547 177.189091 
L 181.387263 177.715059 
L 194.005633 178.534133 
L 203.469411 179.173444 
L 215.03625 179.793917 
L 220.293904 180.080668 
L 220.293904 180.080668 
" clip-path="url(#p3f116e2ce6)" style="fill: none; stroke: #00ff0d; stroke-opacity: 0.6; stroke-width: 2; stroke-linecap: square"/>
   </g>
   <g id="patch_8">
    <path d="M 43.647765 184.6 
L 43.647765 120.124 
" style="fill: none; stroke: #000000; stroke-width: 0.8; stroke-linejoin: miter; stroke-linecap: square"/>
   </g>
   <g id="patch_9">
    <path d="M 228.705625 184.6 
L 228.705625 120.124 
" style="fill: none; stroke: #000000; stroke-width: 0.8; stroke-linejoin: miter; stroke-linecap: square"/>
   </g>
   <g id="patch_10">
    <path d="M 43.647765 184.6 
L 228.705625 184.6 
" style="fill: none; stroke: #000000; stroke-width: 0.8; stroke-linejoin: miter; stroke-linecap: square"/>
   </g>
   <g id="patch_11">
    <path d="M 43.647765 120.124 
L 228.705625 120.124 
" style="fill: none; stroke: #000000; stroke-width: 0.8; stroke-linejoin: miter; stroke-linecap: square"/>
   </g>
  </g>
  <g id="axes_3">
   <g id="patch_12">
    <path d="M 291.34214 184.6 
L 476.4 184.6 
L 476.4 120.124 
L 291.34214 120.124 
z
" style="fill: #ffffff"/>
   </g>
   <g id="line2d_51">
    <path d="M 362.835196 184.6 
L 362.835196 120.124 
" clip-path="url(#p881470c15a)" style="fill: none; stroke: #808080; stroke-opacity: 0.3; stroke-linecap: square"/>
   </g>
   <g id="line2d_52">
    <path d="M 415.411737 184.6 
L 415.411737 120.124 
" clip-path="url(#p881470c15a)" style="fill: none; stroke: #808080; stroke-opacity: 0.3; stroke-linecap: square"/>
   </g>
   <g id="matplotlib.axis_5">
    <g id="xtick_24">
     <g id="line2d_53">
      <g>
       <use xlink:href="#m7e81fd2dd7" x="299.743346" y="184.6" style="stroke: #000000; stroke-width: 0.8"/>
      </g>
     </g>
     <g id="text_22">
      <!-- 0 -->
      <g transform="translate(297.198346 197.67875) scale(0.08 -0.08)">
       <use xlink:href="#DejaVuSans-30"/>
      </g>
     </g>
    </g>
    <g id="xtick_25">
     <g id="line2d_54">
      <g>
       <use xlink:href="#m7e81fd2dd7" x="352.319887" y="184.6" style="stroke: #000000; stroke-width: 0.8"/>
      </g>
     </g>
     <g id="text_23">
      <!-- 5000 -->
      <g transform="translate(342.139887 197.67875) scale(0.08 -0.08)">
       <use xlink:href="#DejaVuSans-35"/>
       <use xlink:href="#DejaVuSans-30" x="63.623047"/>
       <use xlink:href="#DejaVuSans-30" x="127.246094"/>
       <use xlink:href="#DejaVuSans-30" x="190.869141"/>
      </g>
     </g>
    </g>
    <g id="xtick_26">
     <g id="line2d_55">
      <g>
       <use xlink:href="#m7e81fd2dd7" x="404.896429" y="184.6" style="stroke: #000000; stroke-width: 0.8"/>
      </g>
     </g>
     <g id="text_24">
      <!-- 10000 -->
      <g transform="translate(392.171429 197.67875) scale(0.08 -0.08)">
       <use xlink:href="#DejaVuSans-31"/>
       <use xlink:href="#DejaVuSans-30" x="63.623047"/>
       <use xlink:href="#DejaVuSans-30" x="127.246094"/>
       <use xlink:href="#DejaVuSans-30" x="190.869141"/>
       <use xlink:href="#DejaVuSans-30" x="254.492188"/>
      </g>
     </g>
    </g>
    <g id="xtick_27">
     <g id="line2d_56">
      <g>
       <use xlink:href="#m7e81fd2dd7" x="457.472971" y="184.6" style="stroke: #000000; stroke-width: 0.8"/>
      </g>
     </g>
     <g id="text_25">
      <!-- 15000 -->
      <g transform="translate(444.747971 197.67875) scale(0.08 -0.08)">
       <use xlink:href="#DejaVuSans-31"/>
       <use xlink:href="#DejaVuSans-35" x="63.623047"/>
       <use xlink:href="#DejaVuSans-30" x="127.246094"/>
       <use xlink:href="#DejaVuSans-30" x="190.869141"/>
       <use xlink:href="#DejaVuSans-30" x="254.492188"/>
      </g>
     </g>
    </g>
    <g id="text_26">
     <!-- Iteration -->
     <g transform="translate(366.904195 209.42125) scale(0.08 -0.08)">
      <use xlink:href="#DejaVuSans-49"/>
      <use xlink:href="#DejaVuSans-74" x="29.492188"/>
      <use xlink:href="#DejaVuSans-65" x="68.701172"/>
      <use xlink:href="#DejaVuSans-72" x="130.224609"/>
      <use xlink:href="#DejaVuSans-61" x="171.337891"/>
      <use xlink:href="#DejaVuSans-74" x="232.617188"/>
      <use xlink:href="#DejaVuSans-69" x="271.826172"/>
      <use xlink:href="#DejaVuSans-6f" x="299.609375"/>
      <use xlink:href="#DejaVuSans-6e" x="360.791016"/>
     </g>
    </g>
   </g>
   <g id="matplotlib.axis_6">
    <g id="ytick_23">
     <g id="line2d_57">
      <g>
       <use xlink:href="#m7855dd287c" x="291.34214" y="170.86255" style="stroke: #000000; stroke-width: 0.8"/>
      </g>
     </g>
     <g id="text_27">
      <!-- $\mathdefault{10^{-1}}$ -->
      <g transform="translate(265.54214 173.901925) scale(0.08 -0.08)">
       <use xlink:href="#DejaVuSans-31" transform="translate(0 0.684375)"/>
       <use xlink:href="#DejaVuSans-30" transform="translate(63.623047 0.684375)"/>
       <use xlink:href="#DejaVuSans-2212" transform="translate(128.203125 38.965625) scale(0.7)"/>
       <use xlink:href="#DejaVuSans-31" transform="translate(186.855469 38.965625) scale(0.7)"/>
      </g>
     </g>
    </g>
    <g id="ytick_24">
     <g id="line2d_58">
      <g>
       <use xlink:href="#m7855dd287c" x="291.34214" y="153.737605" style="stroke: #000000; stroke-width: 0.8"/>
      </g>
     </g>
     <g id="text_28">
      <!-- $\mathdefault{10^{0}}$ -->
      <g transform="translate(270.26214 156.77698) scale(0.08 -0.08)">
       <use xlink:href="#DejaVuSans-31" transform="translate(0 0.765625)"/>
       <use xlink:href="#DejaVuSans-30" transform="translate(63.623047 0.765625)"/>
       <use xlink:href="#DejaVuSans-30" transform="translate(128.203125 39.046875) scale(0.7)"/>
      </g>
     </g>
    </g>
    <g id="ytick_25">
     <g id="line2d_59">
      <g>
       <use xlink:href="#m7855dd287c" x="291.34214" y="136.61266" style="stroke: #000000; stroke-width: 0.8"/>
      </g>
     </g>
     <g id="text_29">
      <!-- $\mathdefault{10^{1}}$ -->
      <g transform="translate(270.26214 139.652035) scale(0.08 -0.08)">
       <use xlink:href="#DejaVuSans-31" transform="translate(0 0.684375)"/>
       <use xlink:href="#DejaVuSans-30" transform="translate(63.623047 0.684375)"/>
       <use xlink:href="#DejaVuSans-31" transform="translate(128.203125 38.965625) scale(0.7)"/>
      </g>
     </g>
    </g>
    <g id="ytick_26">
     <g id="line2d_60">
      <g>
       <use xlink:href="#m3438e81078" x="291.34214" y="182.832373" style="stroke: #000000; stroke-width: 0.6"/>
      </g>
     </g>
    </g>
    <g id="ytick_27">
     <g id="line2d_61">
      <g>
       <use xlink:href="#m3438e81078" x="291.34214" y="179.81682" style="stroke: #000000; stroke-width: 0.6"/>
      </g>
     </g>
    </g>
    <g id="ytick_28">
     <g id="line2d_62">
      <g>
       <use xlink:href="#m3438e81078" x="291.34214" y="177.677251" style="stroke: #000000; stroke-width: 0.6"/>
      </g>
     </g>
    </g>
    <g id="ytick_29">
     <g id="line2d_63">
      <g>
       <use xlink:href="#m3438e81078" x="291.34214" y="176.017673" style="stroke: #000000; stroke-width: 0.6"/>
      </g>
     </g>
    </g>
    <g id="ytick_30">
     <g id="line2d_64">
      <g>
       <use xlink:href="#m3438e81078" x="291.34214" y="174.661698" style="stroke: #000000; stroke-width: 0.6"/>
      </g>
     </g>
    </g>
    <g id="ytick_31">
     <g id="line2d_65">
      <g>
       <use xlink:href="#m3438e81078" x="291.34214" y="173.515238" style="stroke: #000000; stroke-width: 0.6"/>
      </g>
     </g>
    </g>
    <g id="ytick_32">
     <g id="line2d_66">
      <g>
       <use xlink:href="#m3438e81078" x="291.34214" y="172.522129" style="stroke: #000000; stroke-width: 0.6"/>
      </g>
     </g>
    </g>
    <g id="ytick_33">
     <g id="line2d_67">
      <g>
       <use xlink:href="#m3438e81078" x="291.34214" y="171.646145" style="stroke: #000000; stroke-width: 0.6"/>
      </g>
     </g>
    </g>
    <g id="ytick_34">
     <g id="line2d_68">
      <g>
       <use xlink:href="#m3438e81078" x="291.34214" y="165.707428" style="stroke: #000000; stroke-width: 0.6"/>
      </g>
     </g>
    </g>
    <g id="ytick_35">
     <g id="line2d_69">
      <g>
       <use xlink:href="#m3438e81078" x="291.34214" y="162.691875" style="stroke: #000000; stroke-width: 0.6"/>
      </g>
     </g>
    </g>
    <g id="ytick_36">
     <g id="line2d_70">
      <g>
       <use xlink:href="#m3438e81078" x="291.34214" y="160.552306" style="stroke: #000000; stroke-width: 0.6"/>
      </g>
     </g>
    </g>
    <g id="ytick_37">
     <g id="line2d_71">
      <g>
       <use xlink:href="#m3438e81078" x="291.34214" y="158.892727" style="stroke: #000000; stroke-width: 0.6"/>
      </g>
     </g>
    </g>
    <g id="ytick_38">
     <g id="line2d_72">
      <g>
       <use xlink:href="#m3438e81078" x="291.34214" y="157.536753" style="stroke: #000000; stroke-width: 0.6"/>
      </g>
     </g>
    </g>
    <g id="ytick_39">
     <g id="line2d_73">
      <g>
       <use xlink:href="#m3438e81078" x="291.34214" y="156.390293" style="stroke: #000000; stroke-width: 0.6"/>
      </g>
     </g>
    </g>
    <g id="ytick_40">
     <g id="line2d_74">
      <g>
       <use xlink:href="#m3438e81078" x="291.34214" y="155.397184" style="stroke: #000000; stroke-width: 0.6"/>
      </g>
     </g>
    </g>
    <g id="ytick_41">
     <g id="line2d_75">
      <g>
       <use xlink:href="#m3438e81078" x="291.34214" y="154.5212" style="stroke: #000000; stroke-width: 0.6"/>
      </g>
     </g>
    </g>
    <g id="ytick_42">
     <g id="line2d_76">
      <g>
       <use xlink:href="#m3438e81078" x="291.34214" y="148.582483" style="stroke: #000000; stroke-width: 0.6"/>
      </g>
     </g>
    </g>
    <g id="ytick_43">
     <g id="line2d_77">
      <g>
       <use xlink:href="#m3438e81078" x="291.34214" y="145.56693" style="stroke: #000000; stroke-width: 0.6"/>
      </g>
     </g>
    </g>
    <g id="ytick_44">
     <g id="line2d_78">
      <g>
       <use xlink:href="#m3438e81078" x="291.34214" y="143.427361" style="stroke: #000000; stroke-width: 0.6"/>
      </g>
     </g>
    </g>
    <g id="ytick_45">
     <g id="line2d_79">
      <g>
       <use xlink:href="#m3438e81078" x="291.34214" y="141.767782" style="stroke: #000000; stroke-width: 0.6"/>
      </g>
     </g>
    </g>
    <g id="ytick_46">
     <g id="line2d_80">
      <g>
       <use xlink:href="#m3438e81078" x="291.34214" y="140.411808" style="stroke: #000000; stroke-width: 0.6"/>
      </g>
     </g>
    </g>
    <g id="ytick_47">
     <g id="line2d_81">
      <g>
       <use xlink:href="#m3438e81078" x="291.34214" y="139.265348" style="stroke: #000000; stroke-width: 0.6"/>
      </g>
     </g>
    </g>
    <g id="ytick_48">
     <g id="line2d_82">
      <g>
       <use xlink:href="#m3438e81078" x="291.34214" y="138.272239" style="stroke: #000000; stroke-width: 0.6"/>
      </g>
     </g>
    </g>
    <g id="ytick_49">
     <g id="line2d_83">
      <g>
       <use xlink:href="#m3438e81078" x="291.34214" y="137.396255" style="stroke: #000000; stroke-width: 0.6"/>
      </g>
     </g>
    </g>
    <g id="ytick_50">
     <g id="line2d_84">
      <g>
       <use xlink:href="#m3438e81078" x="291.34214" y="131.457538" style="stroke: #000000; stroke-width: 0.6"/>
      </g>
     </g>
    </g>
    <g id="ytick_51">
     <g id="line2d_85">
      <g>
       <use xlink:href="#m3438e81078" x="291.34214" y="128.441985" style="stroke: #000000; stroke-width: 0.6"/>
      </g>
     </g>
    </g>
    <g id="ytick_52">
     <g id="line2d_86">
      <g>
       <use xlink:href="#m3438e81078" x="291.34214" y="126.302416" style="stroke: #000000; stroke-width: 0.6"/>
      </g>
     </g>
    </g>
    <g id="ytick_53">
     <g id="line2d_87">
      <g>
       <use xlink:href="#m3438e81078" x="291.34214" y="124.642837" style="stroke: #000000; stroke-width: 0.6"/>
      </g>
     </g>
    </g>
    <g id="ytick_54">
     <g id="line2d_88">
      <g>
       <use xlink:href="#m3438e81078" x="291.34214" y="123.286863" style="stroke: #000000; stroke-width: 0.6"/>
      </g>
     </g>
    </g>
    <g id="ytick_55">
     <g id="line2d_89">
      <g>
       <use xlink:href="#m3438e81078" x="291.34214" y="122.140402" style="stroke: #000000; stroke-width: 0.6"/>
      </g>
     </g>
    </g>
    <g id="ytick_56">
     <g id="line2d_90">
      <g>
       <use xlink:href="#m3438e81078" x="291.34214" y="121.147294" style="stroke: #000000; stroke-width: 0.6"/>
      </g>
     </g>
    </g>
    <g id="ytick_57">
     <g id="line2d_91">
      <g>
       <use xlink:href="#m3438e81078" x="291.34214" y="120.271309" style="stroke: #000000; stroke-width: 0.6"/>
      </g>
     </g>
    </g>
    <g id="text_30">
     <!-- Maximum residual -->
     <g transform="translate(259.87839 189.1895) rotate(-90) scale(0.08 -0.08)">
      <defs>
       <path id="DejaVuSans-4d" d="M 628 4666 
L 1569 4666 
L 2759 1491 
L 3956 4666 
L 4897 4666 
L 4897 0 
L 4281 0 
L 4281 4097 
L 3078 897 
L 2444 897 
L 1241 4097 
L 1241 0 
L 628 0 
L 628 4666 
z
" transform="scale(0.015625)"/>
       <path id="DejaVuSans-78" d="M 3513 3500 
L 2247 1797 
L 3578 0 
L 2900 0 
L 1881 1375 
L 863 0 
L 184 0 
L 1544 1831 
L 300 3500 
L 978 3500 
L 1906 2253 
L 2834 3500 
L 3513 3500 
z
" transform="scale(0.015625)"/>
       <path id="DejaVuSans-75" d="M 544 1381 
L 544 3500 
L 1119 3500 
L 1119 1403 
Q 1119 906 1312 657 
Q 1506 409 1894 409 
Q 2359 409 2629 706 
Q 2900 1003 2900 1516 
L 2900 3500 
L 3475 3500 
L 3475 0 
L 2900 0 
L 2900 538 
Q 2691 219 2414 64 
Q 2138 -91 1772 -91 
Q 1169 -91 856 284 
Q 544 659 544 1381 
z
M 1991 3584 
L 1991 3584 
z
" transform="scale(0.015625)"/>
       <path id="DejaVuSans-64" d="M 2906 2969 
L 2906 4863 
L 3481 4863 
L 3481 0 
L 2906 0 
L 2906 525 
Q 2725 213 2448 61 
Q 2172 -91 1784 -91 
Q 1150 -91 751 415 
Q 353 922 353 1747 
Q 353 2572 751 3078 
Q 1150 3584 1784 3584 
Q 2172 3584 2448 3432 
Q 2725 3281 2906 2969 
z
M 947 1747 
Q 947 1113 1208 752 
Q 1469 391 1925 391 
Q 2381 391 2643 752 
Q 2906 1113 2906 1747 
Q 2906 2381 2643 2742 
Q 2381 3103 1925 3103 
Q 1469 3103 1208 2742 
Q 947 2381 947 1747 
z
" transform="scale(0.015625)"/>
      </defs>
      <use xlink:href="#DejaVuSans-4d"/>
      <use xlink:href="#DejaVuSans-61" x="86.279297"/>
      <use xlink:href="#DejaVuSans-78" x="147.558594"/>
      <use xlink:href="#DejaVuSans-69" x="206.738281"/>
      <use xlink:href="#DejaVuSans-6d" x="234.521484"/>
      <use xlink:href="#DejaVuSans-75" x="331.933594"/>
      <use xlink:href="#DejaVuSans-6d" x="395.3125"/>
      <use xlink:href="#DejaVuSans-20" x="492.724609"/>
      <use xlink:href="#DejaVuSans-72" x="524.511719"/>
      <use xlink:href="#DejaVuSans-65" x="563.375"/>
      <use xlink:href="#DejaVuSans-73" x="624.898438"/>
      <use xlink:href="#DejaVuSans-69" x="676.998047"/>
      <use xlink:href="#DejaVuSans-64" x="704.78125"/>
      <use xlink:href="#DejaVuSans-75" x="768.257812"/>
      <use xlink:href="#DejaVuSans-61" x="831.636719"/>
      <use xlink:href="#DejaVuSans-6c" x="892.916016"/>
     </g>
    </g>
   </g>
   <g id="line2d_92">
    <path d="M 299.753861 123.054727 
L 300.794876 139.888379 
L 301.846407 136.39973 
L 302.897938 138.291883 
L 303.949469 139.805689 
L 305.001 142.276524 
L 306.052531 141.784048 
L 307.104061 140.680408 
L 308.155592 139.95978 
L 309.207123 138.518427 
L 310.258654 138.816421 
L 311.310185 137.365164 
L 312.361716 138.411871 
L 313.413246 136.636899 
L 314.464777 134.251604 
L 315.516308 137.487852 
L 316.567839 136.183889 
L 317.61937 139.371278 
L 318.670901 139.578839 
L 319.722431 139.996261 
L 320.773962 139.669743 
L 321.825493 141.489907 
L 322.877024 142.931516 
L 323.928555 143.000715 
L 324.980086 144.609249 
L 326.031616 145.100983 
L 327.083147 147.762834 
L 328.134678 149.89285 
L 329.186209 151.32662 
L 331.289271 153.668793 
L 332.340801 155.338456 
L 333.392332 155.605218 
L 334.443863 156.590017 
L 335.495394 156.443458 
L 337.598456 158.274238 
L 338.649986 159.198301 
L 339.701517 159.88573 
L 340.753048 160.244116 
L 341.804579 160.259517 
L 342.85611 160.798317 
L 343.907641 160.965249 
L 344.959171 162.146173 
L 346.010702 162.560506 
L 347.062233 162.643336 
L 348.113764 163.843329 
L 349.165295 163.821847 
L 350.216826 164.802494 
L 352.319887 165.046721 
L 354.422949 166.381048 
L 355.47448 166.9331 
L 356.526011 168.043299 
L 357.577541 168.547038 
L 358.629072 168.507202 
L 359.680603 168.709998 
L 360.732134 169.062158 
L 361.783665 168.705052 
L 363.886726 168.933236 
L 364.938257 169.438775 
L 365.989788 169.092737 
L 367.041319 169.402123 
L 368.09285 169.020228 
L 369.144381 168.776193 
L 370.195911 168.398347 
L 371.247442 167.780279 
L 373.350504 168.167994 
L 374.402035 168.951115 
L 375.453566 168.672024 
L 376.505096 169.452788 
L 377.556627 169.434562 
L 378.608158 169.849217 
L 379.659689 170.089378 
L 380.71122 170.116688 
L 381.762751 170.367252 
L 382.814281 170.219692 
L 384.917343 171.155612 
L 385.968874 171.341025 
L 387.020405 171.296217 
L 388.071936 170.764085 
L 389.123466 171.150872 
L 391.226528 170.775667 
L 393.32959 170.492506 
L 395.432651 170.794366 
L 396.484182 171.652071 
L 397.535713 172.055086 
L 398.587244 172.23919 
L 399.638775 172.835282 
L 400.690306 173.17201 
L 402.793367 173.514227 
L 403.844898 173.405927 
L 405.94796 173.787145 
L 406.999491 173.618771 
L 408.051022 173.738195 
L 409.102552 173.459616 
L 410.154083 173.77956 
L 411.205614 173.953374 
L 412.257145 174.306462 
L 413.308676 174.434694 
L 414.360207 174.039942 
L 416.463268 173.847343 
L 417.514799 174.326334 
L 419.617861 174.233848 
L 421.720922 173.81084 
L 422.772453 173.96407 
L 424.875515 173.762915 
L 428.030107 174.222175 
L 430.133169 174.215323 
L 432.236231 174.193366 
L 433.287762 174.226477 
L 436.442354 173.936443 
L 437.493885 174.293003 
L 438.545416 174.228946 
L 440.648477 174.634236 
L 441.700008 174.622469 
L 442.751539 174.853381 
L 444.854601 174.637993 
L 445.906132 174.868399 
L 446.957662 175.354692 
L 449.060724 175.473193 
L 451.163786 175.948636 
L 452.215317 176.098922 
L 453.266847 175.975961 
L 455.369909 176.654196 
L 456.42144 176.700332 
L 457.472971 177.230596 
L 458.524502 177.230855 
L 460.627563 177.688775 
L 463.782156 177.216451 
L 464.833687 177.370887 
L 465.885217 177.650654 
L 467.988279 177.841745 
L 467.988279 177.841745 
" clip-path="url(#p881470c15a)" style="fill: none; stroke: #00a2ff; stroke-opacity: 0.6; stroke-width: 2; stroke-linecap: square"/>
   </g>
   <g id="line2d_93">
    <path d="M 299.753861 123.054727 
L 300.794876 139.888379 
L 301.846407 136.39973 
L 302.897938 138.291883 
L 303.949469 139.805689 
L 305.001 142.276524 
L 306.052531 141.784048 
L 307.104061 140.680408 
L 308.155592 139.95978 
L 309.207123 138.518427 
L 310.258654 138.816421 
L 311.310185 137.365164 
L 312.361716 138.411871 
L 313.413246 136.636899 
L 314.464777 134.251604 
L 315.516308 137.487852 
L 316.567839 136.183889 
L 317.61937 139.371278 
L 318.670901 139.578839 
L 319.722431 139.996261 
L 320.773962 139.669743 
L 321.825493 141.489907 
L 322.877024 142.931516 
L 323.928555 143.000715 
L 324.980086 144.609249 
L 326.031616 145.100983 
L 327.083147 147.762834 
L 328.134678 149.89285 
L 329.186209 151.32662 
L 331.289271 153.668793 
L 332.340801 155.338456 
L 333.392332 155.605218 
L 334.443863 156.590017 
L 335.495394 156.443458 
L 337.598456 158.274238 
L 338.649986 159.198301 
L 339.701517 159.88573 
L 340.753048 160.244116 
L 341.804579 160.259517 
L 342.85611 160.798317 
L 343.907641 160.965249 
L 344.959171 162.146173 
L 346.010702 162.560506 
L 347.062233 162.643336 
L 348.113764 163.843329 
L 349.165295 163.821847 
L 350.216826 164.802494 
L 352.319887 165.046721 
L 354.422949 166.381048 
L 355.47448 166.9331 
L 356.526011 168.043299 
L 357.577541 168.547038 
L 358.629072 168.507202 
L 359.680603 168.709998 
L 360.732134 169.062158 
L 361.783665 168.705052 
L 362.835196 168.855939 
L 363.886726 165.853441 
L 364.938257 168.049074 
L 365.989788 169.57848 
L 368.09285 170.534925 
L 369.144381 171.575589 
L 370.195911 172.796696 
L 371.247442 173.375662 
L 372.298973 173.551625 
L 373.350504 174.478217 
L 374.402035 175.113081 
L 375.453566 175.996871 
L 377.556627 176.084961 
L 379.659689 176.719939 
L 381.762751 176.308218 
L 382.814281 176.227372 
L 384.917343 177.406237 
L 385.968874 176.966521 
L 387.020405 177.687335 
L 388.071936 177.994923 
L 390.174997 177.953797 
L 392.278059 178.898918 
L 393.32959 178.92599 
L 395.432651 179.718974 
L 397.535713 179.575624 
L 398.587244 180.255833 
L 399.638775 179.982676 
L 401.741836 179.742194 
L 402.793367 179.96423 
L 403.844898 179.637066 
L 404.896429 179.429378 
L 405.94796 179.896777 
L 406.999491 180.124746 
L 408.051022 179.911876 
L 409.102552 180.172594 
L 410.154083 180.215268 
L 411.205614 180.118768 
L 413.308676 180.701915 
L 414.360207 180.352577 
L 415.411737 180.450706 
L 416.463268 178.153581 
L 417.514799 177.384594 
L 418.56633 177.365079 
L 419.617861 177.021254 
L 420.669392 176.837959 
L 421.720922 176.794332 
L 422.772453 176.973155 
L 423.823984 177.321069 
L 424.875515 177.39563 
L 425.927046 177.343 
L 426.978577 177.555566 
L 428.030107 177.179879 
L 429.081638 177.323622 
L 430.133169 177.299324 
L 431.1847 177.087108 
L 432.236231 177.334284 
L 433.287762 177.914164 
L 434.339292 177.869312 
L 435.390823 178.447455 
L 436.442354 178.726032 
L 437.493885 178.081947 
L 438.545416 178.042345 
L 439.596947 178.791931 
L 440.648477 179.111869 
L 441.700008 179.218547 
L 442.751539 178.725645 
L 443.80307 178.58592 
L 444.854601 178.659891 
L 446.957662 178.480306 
L 448.009193 179.814668 
L 450.112255 179.756188 
L 452.215317 180.547257 
L 453.266847 180.698805 
L 455.369909 180.744836 
L 460.627563 181.349183 
L 461.679094 181.120781 
L 462.730625 181.42663 
L 464.833687 181.431962 
L 466.936748 181.377169 
L 467.988279 181.669273 
L 467.988279 181.669273 
" clip-path="url(#p881470c15a)" style="fill: none; stroke: #00ff0d; stroke-opacity: 0.6; stroke-width: 2; stroke-linecap: square"/>
   </g>
   <g id="patch_13">
    <path d="M 291.34214 184.6 
L 291.34214 120.124 
" style="fill: none; stroke: #000000; stroke-width: 0.8; stroke-linejoin: miter; stroke-linecap: square"/>
   </g>
   <g id="patch_14">
    <path d="M 476.4 184.6 
L 476.4 120.124 
" style="fill: none; stroke: #000000; stroke-width: 0.8; stroke-linejoin: miter; stroke-linecap: square"/>
   </g>
   <g id="patch_15">
    <path d="M 291.34214 184.6 
L 476.4 184.6 
" style="fill: none; stroke: #000000; stroke-width: 0.8; stroke-linejoin: miter; stroke-linecap: square"/>
   </g>
   <g id="patch_16">
    <path d="M 291.34214 120.124 
L 476.4 120.124 
" style="fill: none; stroke: #000000; stroke-width: 0.8; stroke-linejoin: miter; stroke-linecap: square"/>
   </g>
   <g id="legend_1">
    <g id="line2d_94">
     <path d="M 425.117344 129.292906 
L 429.317344 129.292906 
L 433.517344 129.292906 
" style="fill: none; stroke: #00a2ff; stroke-opacity: 0.6; stroke-width: 2; stroke-linecap: square"/>
    </g>
    <g id="text_31">
     <!-- Uniform -->
     <g transform="translate(439.117344 131.742906) scale(0.07 -0.07)">
      <defs>
       <path id="DejaVuSans-55" d="M 556 4666 
L 1191 4666 
L 1191 1831 
Q 1191 1081 1462 751 
Q 1734 422 2344 422 
Q 2950 422 3222 751 
Q 3494 1081 3494 1831 
L 3494 4666 
L 4128 4666 
L 4128 1753 
Q 4128 841 3676 375 
Q 3225 -91 2344 -91 
Q 1459 -91 1007 375 
Q 556 841 556 1753 
L 556 4666 
z
" transform="scale(0.015625)"/>
      </defs>
      <use xlink:href="#DejaVuSans-55"/>
      <use xlink:href="#DejaVuSans-6e" x="73.193359"/>
      <use xlink:href="#DejaVuSans-69" x="136.572266"/>
      <use xlink:href="#DejaVuSans-66" x="164.355469"/>
      <use xlink:href="#DejaVuSans-6f" x="199.560547"/>
      <use xlink:href="#DejaVuSans-72" x="260.742188"/>
      <use xlink:href="#DejaVuSans-6d" x="300.105469"/>
     </g>
    </g>
    <g id="line2d_95">
     <path d="M 425.117344 139.567594 
L 429.317344 139.567594 
L 433.517344 139.567594 
" style="fill: none; stroke: #00ff0d; stroke-opacity: 0.6; stroke-width: 2; stroke-linecap: square"/>
    </g>
    <g id="text_32">
     <!-- Adaptive -->
     <g transform="translate(439.117344 142.017594) scale(0.07 -0.07)">
      <defs>
       <path id="DejaVuSans-41" d="M 2188 4044 
L 1331 1722 
L 3047 1722 
L 2188 4044 
z
M 1831 4666 
L 2547 4666 
L 4325 0 
L 3669 0 
L 3244 1197 
L 1141 1197 
L 716 0 
L 50 0 
L 1831 4666 
z
" transform="scale(0.015625)"/>
      </defs>
      <use xlink:href="#DejaVuSans-41"/>
      <use xlink:href="#DejaVuSans-64" x="66.658203"/>
      <use xlink:href="#DejaVuSans-61" x="130.134766"/>
      <use xlink:href="#DejaVuSans-70" x="191.414062"/>
      <use xlink:href="#DejaVuSans-74" x="254.890625"/>
      <use xlink:href="#DejaVuSans-69" x="294.099609"/>
      <use xlink:href="#DejaVuSans-76" x="321.882812"/>
      <use xlink:href="#DejaVuSans-65" x="381.0625"/>
     </g>
    </g>
   </g>
  </g>
 </g>
 <defs>
  <clipPath id="p9a5946ab45">
   <rect x="43.647765" y="10.248" width="432.752235" height="64.476"/>
  </clipPath>
  <clipPath id="p3f116e2ce6">
   <rect x="43.647765" y="120.124" width="185.05786" height="64.476"/>
  </clipPath>
  <clipPath id="p881470c15a">
   <rect x="291.34214" y="120.124" width="185.05786" height="64.476"/>
  </clipPath>
 </defs>
</svg>
